<svg width="302" height="84" viewBox="0 0 302 84" fill="none" xmlns="http://www.w3.org/2000/svg">
<path d="M206 0H176C166.611 0 159 7.61116 159 17V47C159 56.3888 166.611 64 176 64H206C215.389 64 223 56.3888 223 47V17C223 7.61116 215.389 0 206 0Z" fill="white"/>
<path d="M170.707 80H171.526V73.727H170.707V76.481H167.512V73.727H166.693V80H167.512V77.156H170.707V80ZM175.013 75.68C175.859 75.68 176.579 76.211 176.57 77.174H173.456C173.546 76.211 174.212 75.68 175.013 75.68ZM177.317 78.479H176.435C176.255 79.01 175.787 79.388 175.049 79.388C174.212 79.388 173.51 78.839 173.447 77.84H177.389C177.407 77.669 177.416 77.525 177.416 77.345C177.416 75.995 176.48 74.987 175.049 74.987C173.609 74.987 172.61 75.968 172.61 77.525C172.61 79.091 173.645 80.081 175.049 80.081C176.273 80.081 177.065 79.379 177.317 78.479ZM178.191 77.516C178.191 79.046 179.208 80.081 180.522 80.081C181.431 80.081 182.07 79.613 182.367 79.082V80H183.195V75.068H182.367V75.968C182.079 75.455 181.449 74.987 180.531 74.987C179.208 74.987 178.191 75.977 178.191 77.516ZM182.367 77.525C182.367 78.686 181.593 79.361 180.693 79.361C179.793 79.361 179.028 78.677 179.028 77.516C179.028 76.355 179.793 75.698 180.693 75.698C181.593 75.698 182.367 76.382 182.367 77.525ZM185.398 77.318C185.398 76.175 185.992 75.824 186.775 75.824H186.991V74.978C186.208 74.978 185.677 75.32 185.398 75.869V75.068H184.579V80H185.398V77.318ZM188.116 78.65C188.116 79.64 188.611 80 189.484 80H190.222V79.307H189.619C189.115 79.307 188.935 79.136 188.935 78.65V75.743H190.222V75.068H188.935V73.826H188.116V75.068H187.477V75.743H188.116V78.65ZM193.308 76.859C193.308 78.74 194.685 80.054 196.44 80.054C197.799 80.054 198.879 79.379 199.347 78.173H198.366C198.024 78.92 197.358 79.343 196.44 79.343C195.126 79.343 194.145 78.389 194.145 76.859C194.145 75.32 195.126 74.366 196.44 74.366C197.358 74.366 198.024 74.789 198.366 75.545H199.347C198.879 74.33 197.799 73.646 196.44 73.646C194.685 73.646 193.308 74.978 193.308 76.859ZM200.26 77.516C200.26 79.046 201.277 80.081 202.591 80.081C203.5 80.081 204.139 79.613 204.436 79.082V80H205.264V75.068H204.436V75.968C204.148 75.455 203.518 74.987 202.6 74.987C201.277 74.987 200.26 75.977 200.26 77.516ZM204.436 77.525C204.436 78.686 203.662 79.361 202.762 79.361C201.862 79.361 201.097 78.677 201.097 77.516C201.097 76.355 201.862 75.698 202.762 75.698C203.662 75.698 204.436 76.382 204.436 77.525ZM207.467 77.318C207.467 76.175 208.061 75.824 208.844 75.824H209.06V74.978C208.277 74.978 207.746 75.32 207.467 75.869V75.068H206.648V80H207.467V77.318ZM212.103 75.68C212.949 75.68 213.669 76.211 213.66 77.174H210.546C210.635 76.211 211.302 75.68 212.103 75.68ZM214.407 78.479H213.525C213.345 79.01 212.877 79.388 212.139 79.388C211.302 79.388 210.6 78.839 210.537 77.84H214.479C214.497 77.669 214.506 77.525 214.506 77.345C214.506 75.995 213.57 74.987 212.139 74.987C210.699 74.987 209.7 75.968 209.7 77.525C209.7 79.091 210.735 80.081 212.139 80.081C213.363 80.081 214.155 79.379 214.407 78.479Z" fill="#080A24"/>
<path d="M204.26 28.113C204.262 29.1703 204.055 30.2176 203.65 31.1943C203.245 32.1709 202.65 33.0576 201.9 33.803L193.49 42.213C192.916 42.7831 192.259 43.262 191.54 43.633H191.29C191.207 43.6428 191.123 43.6428 191.04 43.633C190.957 43.6428 190.873 43.6428 190.79 43.633H190.54C189.804 43.2664 189.129 42.7873 188.54 42.213L183.29 36.993C183.102 36.8047 182.996 36.5493 182.996 36.283C182.996 36.0167 183.102 35.7613 183.29 35.573C183.478 35.3847 183.734 35.2789 184 35.2789C184.266 35.2789 184.522 35.3847 184.71 35.573L189.93 40.793C190.25 41.1143 190.609 41.3932 191 41.623C191.391 41.3932 191.75 41.1143 192.07 40.793L200.48 32.383C201.05 31.8234 201.503 31.1565 201.813 30.4209C202.124 29.6852 202.285 28.8954 202.289 28.0969C202.292 27.2984 202.138 26.5072 201.834 25.7688C201.53 25.0304 201.083 24.3596 200.518 23.795C199.953 23.2304 199.283 22.7832 198.544 22.4793C197.806 22.1753 197.015 22.0207 196.216 22.0242C195.418 22.0277 194.628 22.1894 193.892 22.4999C193.156 22.8103 192.49 23.2634 191.93 23.833L191.71 24.053C191.581 24.1798 191.419 24.2691 191.243 24.3114C191.067 24.3537 190.883 24.3473 190.71 24.293H190.57L190.43 24.193C190.363 24.1589 190.3 24.1188 190.24 24.073L190.02 23.853C189.184 23.0339 188.129 22.4746 186.982 22.2431C185.835 22.0115 184.646 22.1175 183.558 22.5482C182.47 22.979 181.53 23.716 180.852 24.6699C180.175 25.6239 179.788 26.7539 179.74 27.923C179.74 28.1882 179.635 28.4426 179.447 28.6301C179.26 28.8176 179.005 28.923 178.74 28.923C178.475 28.923 178.22 28.8176 178.033 28.6301C177.845 28.4426 177.74 28.1882 177.74 27.923C177.755 26.3936 178.208 24.9005 179.045 23.6206C179.882 22.3407 181.069 21.3276 182.464 20.7014C183.86 20.0753 185.406 19.8623 186.918 20.0876C188.431 20.313 189.848 20.9673 191 21.973C192.164 20.9565 193.599 20.2992 195.129 20.0805C196.659 19.8617 198.22 20.0909 199.622 20.7404C201.025 21.3899 202.209 22.4319 203.032 23.7402C203.855 25.0486 204.282 26.5674 204.26 28.113ZM183.65 33.533L185.75 28.923L187.4 35.193C187.453 35.3999 187.571 35.5843 187.737 35.7193C187.902 35.8542 188.107 35.9326 188.32 35.943C188.523 35.9416 188.72 35.8787 188.886 35.7627C189.052 35.6466 189.179 35.4828 189.25 35.293L191.2 30.123L192.12 31.493C192.217 31.6341 192.35 31.7478 192.504 31.8231C192.658 31.8984 192.829 31.9328 193 31.923H196C196.265 31.923 196.52 31.8176 196.707 31.6301C196.895 31.4426 197 31.1882 197 30.923C197 30.6578 196.895 30.4034 196.707 30.2159C196.52 30.0284 196.265 29.923 196 29.923H193.54L191.83 27.373C191.728 27.2193 191.586 27.0967 191.419 27.0188C191.252 26.9408 191.067 26.9105 190.884 26.9312C190.701 26.9519 190.527 27.0228 190.381 27.136C190.236 27.2493 190.125 27.4005 190.06 27.573L188.54 31.633L187 25.673C186.944 25.4708 186.827 25.2906 186.665 25.1567C186.504 25.0229 186.305 24.9417 186.096 24.9243C185.887 24.9069 185.677 24.954 185.495 25.0592C185.314 25.1645 185.169 25.3228 185.08 25.513L182.86 30.423C182.773 30.2719 182.647 30.1462 182.497 30.0585C182.346 29.9708 182.175 29.9241 182 29.923H178C177.735 29.923 177.48 30.0284 177.293 30.2159C177.105 30.4034 177 30.6578 177 30.923C177 31.1882 177.105 31.4426 177.293 31.6301C177.48 31.8176 177.735 31.923 178 31.923H181.28L181.79 33.443C181.854 33.6335 181.974 33.8003 182.135 33.9215C182.295 34.0427 182.488 34.1128 182.689 34.1225C182.89 34.1322 183.089 34.0811 183.261 33.976C183.432 33.8708 183.568 33.7165 183.65 33.533Z" fill="#585EE5"/>
<path d="M285 0H255C245.611 0 238 7.61116 238 17V47C238 56.3888 245.611 64 255 64H285C294.389 64 302 56.3888 302 47V17C302 7.61116 294.389 0 285 0Z" fill="white"/>
<path d="M256.646 73.727H254.693V80H256.646C258.707 80 259.976 78.821 259.976 76.877C259.976 74.933 258.707 73.727 256.646 73.727ZM255.512 79.325V74.393H256.646C258.284 74.393 259.139 75.347 259.139 76.877C259.139 78.407 258.284 79.325 256.646 79.325H255.512ZM263.153 75.68C263.999 75.68 264.719 76.211 264.71 77.174H261.596C261.686 76.211 262.352 75.68 263.153 75.68ZM265.457 78.479H264.575C264.395 79.01 263.927 79.388 263.189 79.388C262.352 79.388 261.65 78.839 261.587 77.84H265.529C265.547 77.669 265.556 77.525 265.556 77.345C265.556 75.995 264.62 74.987 263.189 74.987C261.749 74.987 260.75 75.968 260.75 77.525C260.75 79.091 261.785 80.081 263.189 80.081C264.413 80.081 265.205 79.379 265.457 78.479ZM270.246 80H271.056V77.093C271.056 75.68 270.183 74.978 269.04 74.978C268.374 74.978 267.78 75.257 267.456 75.77V75.068H266.637V80H267.456V77.273C267.456 76.211 268.032 75.689 268.869 75.689C269.697 75.689 270.246 76.202 270.246 77.21V80ZM272.574 78.65C272.574 79.64 273.069 80 273.942 80H274.68V79.307H274.077C273.573 79.307 273.393 79.136 273.393 78.65V75.743H274.68V75.068H273.393V73.826H272.574V75.068H271.935V75.743H272.574V78.65ZM275.672 80H276.491V75.068H275.672V80ZM276.095 74.267C276.392 74.267 276.635 74.024 276.635 73.709C276.635 73.394 276.392 73.151 276.095 73.151C275.78 73.151 275.537 73.394 275.537 73.709C275.537 74.024 275.78 74.267 276.095 74.267ZM281.433 78.659C281.397 76.895 278.535 77.534 278.535 76.364C278.535 75.968 278.895 75.68 279.498 75.68C280.155 75.68 280.533 76.04 280.569 76.535H281.388C281.334 75.572 280.614 74.987 279.525 74.987C278.427 74.987 277.716 75.608 277.716 76.364C277.716 78.2 280.632 77.561 280.632 78.659C280.632 79.064 280.272 79.388 279.624 79.388C278.931 79.388 278.508 79.028 278.463 78.551H277.617C277.671 79.451 278.481 80.081 279.633 80.081C280.722 80.081 281.433 79.469 281.433 78.659ZM282.769 78.65C282.769 79.64 283.264 80 284.137 80H284.875V79.307H284.272C283.768 79.307 283.588 79.136 283.588 78.65V75.743H284.875V75.068H283.588V73.826H282.769V75.068H282.13V75.743H282.769V78.65Z" fill="#080A24"/>
<path d="M283 38C283.265 38 283.52 37.8946 283.707 37.7071C283.895 37.5196 284 37.2652 284 37V34C284 33.7348 283.895 33.4804 283.707 33.2929C283.52 33.1054 283.265 33 283 33C282.735 33 282.48 33.1054 282.293 33.2929C282.105 33.4804 282 33.7348 282 34V36H280V35C280.265 35 280.52 34.8946 280.707 34.7071C280.895 34.5196 281 34.2652 281 34C281 33.7348 280.895 33.4804 280.707 33.2929C280.52 33.1054 280.265 33 280 33C280 32.7348 279.895 32.4804 279.707 32.2929C279.52 32.1054 279.265 32 279 32H268C267.735 32 267.48 32.1054 267.293 32.2929C267.105 32.4804 267 32.7348 267 33V21H270C270.265 21 270.52 20.8946 270.707 20.7071C270.895 20.5196 271 20.2652 271 20C271 19.7348 270.895 19.4804 270.707 19.2929C270.52 19.1054 270.265 19 270 19H260C259.735 19 259.48 19.1054 259.293 19.2929C259.105 19.4804 259 19.7348 259 20C259 20.2652 259.105 20.5196 259.293 20.7071C259.48 20.8946 259.735 21 260 21H260.5V22.21C260.055 22.4055 259.677 22.726 259.41 23.1325C259.144 23.539 259.002 24.0141 259 24.5V25.5C259 26.163 259.263 26.7989 259.732 27.2678C260.201 27.7366 260.837 28 261.5 28C262.163 28 262.799 27.7366 263.268 27.2678C263.737 26.7989 264 26.163 264 25.5V24.5C263.998 24.0141 263.856 23.539 263.59 23.1325C263.323 22.726 262.945 22.4055 262.5 22.21V21H265V33H262.54L260.83 30.45C260.674 30.256 260.451 30.1273 260.204 30.0891C259.958 30.0509 259.707 30.1061 259.499 30.2437C259.291 30.3813 259.142 30.5916 259.081 30.8332C259.021 31.0748 259.052 31.3304 259.17 31.55L261.17 34.55C261.261 34.6876 261.384 34.8006 261.529 34.8791C261.673 34.9576 261.835 34.9991 262 35H267V36H258V31C258 30.7348 257.895 30.4804 257.707 30.2929C257.52 30.1054 257.265 30 257 30C256.735 30 256.48 30.1054 256.293 30.2929C256.105 30.4804 256 30.7348 256 31V37C256 37.2652 256.105 37.5196 256.293 37.7071C256.48 37.8946 256.735 38 257 38H259V43H257C256.735 43 256.48 43.1054 256.293 43.2929C256.105 43.4804 256 43.7348 256 44C256 44.2652 256.105 44.5196 256.293 44.7071C256.48 44.8946 256.735 45 257 45H283C283.265 45 283.52 44.8946 283.707 44.7071C283.895 44.5196 284 44.2652 284 44C284 43.7348 283.895 43.4804 283.707 43.2929C283.52 43.1054 283.265 43 283 43H282V38H283ZM262 25.5C262 25.6326 261.947 25.7598 261.854 25.8536C261.76 25.9473 261.633 26 261.5 26C261.367 26 261.24 25.9473 261.146 25.8536C261.053 25.7598 261 25.6326 261 25.5V24.5C261 24.3674 261.053 24.2402 261.146 24.1464C261.24 24.0527 261.367 24 261.5 24C261.633 24 261.76 24.0527 261.854 24.1464C261.947 24.2402 262 24.3674 262 24.5V25.5ZM278 34V37H269V34H278ZM280 43H261V38H267C267 38.2652 267.105 38.5196 267.293 38.7071C267.48 38.8946 267.735 39 268 39H279C279.265 39 279.52 38.8946 279.707 38.7071C279.895 38.5196 280 38.2652 280 38V43Z" fill="#585CE5"/>
<path d="M126 0H96C86.6112 0 79 7.61116 79 17V47C79 56.3888 86.6112 64 96 64H126C135.389 64 143 56.3888 143 47V17C143 7.61116 135.389 0 126 0Z" fill="white"/>
<path d="M96.042 79.136L94.071 73.727H93.198L95.565 80H96.51L98.877 73.727H98.013L96.042 79.136ZM99.469 77.516C99.469 79.046 100.486 80.081 101.8 80.081C102.709 80.081 103.348 79.613 103.645 79.082V80H104.473V75.068H103.645V75.968C103.357 75.455 102.727 74.987 101.809 74.987C100.486 74.987 99.469 75.977 99.469 77.516ZM103.645 77.525C103.645 78.686 102.871 79.361 101.971 79.361C101.071 79.361 100.306 78.677 100.306 77.516C100.306 76.355 101.071 75.698 101.971 75.698C102.871 75.698 103.645 76.382 103.645 77.525ZM105.551 77.525C105.551 79.091 106.55 80.081 107.954 80.081C109.178 80.081 109.979 79.397 110.231 78.416H109.349C109.169 79.037 108.683 79.388 107.954 79.388C107.054 79.388 106.388 78.749 106.388 77.525C106.388 76.319 107.054 75.68 107.954 75.68C108.683 75.68 109.178 76.058 109.349 76.652H110.231C109.979 75.617 109.178 74.987 107.954 74.987C106.55 74.987 105.551 75.977 105.551 77.525ZM111.018 77.525C111.018 79.091 112.017 80.081 113.421 80.081C114.645 80.081 115.446 79.397 115.698 78.416H114.816C114.636 79.037 114.15 79.388 113.421 79.388C112.521 79.388 111.855 78.749 111.855 77.525C111.855 76.319 112.521 75.68 113.421 75.68C114.15 75.68 114.645 76.058 114.816 76.652H115.698C115.446 75.617 114.645 74.987 113.421 74.987C112.017 74.987 111.018 75.977 111.018 77.525ZM116.791 80H117.61V75.068H116.791V80ZM117.214 74.267C117.511 74.267 117.754 74.024 117.754 73.709C117.754 73.394 117.511 73.151 117.214 73.151C116.899 73.151 116.656 73.394 116.656 73.709C116.656 74.024 116.899 74.267 117.214 74.267ZM122.615 80H123.425V77.093C123.425 75.68 122.552 74.978 121.409 74.978C120.743 74.978 120.149 75.257 119.825 75.77V75.068H119.006V80H119.825V77.273C119.825 76.211 120.401 75.689 121.238 75.689C122.066 75.689 122.615 76.202 122.615 77.21V80ZM126.859 75.68C127.705 75.68 128.425 76.211 128.416 77.174H125.302C125.392 76.211 126.058 75.68 126.859 75.68ZM129.163 78.479H128.281C128.101 79.01 127.633 79.388 126.895 79.388C126.058 79.388 125.356 78.839 125.293 77.84H129.235C129.253 77.669 129.262 77.525 129.262 77.345C129.262 75.995 128.326 74.987 126.895 74.987C125.455 74.987 124.456 75.968 124.456 77.525C124.456 79.091 125.491 80.081 126.895 80.081C128.119 80.081 128.911 79.379 129.163 78.479Z" fill="#080A24"/>
<path d="M112.266 36.356L119.086 29.526C119.197 29.4167 119.281 29.283 119.332 29.1354C119.382 28.9878 119.397 28.8305 119.376 28.676L118.736 24.226L119.796 23.166L121.216 21.746C121.315 21.6536 121.394 21.5424 121.449 21.4189C121.504 21.2955 121.534 21.1623 121.537 21.0271C121.54 20.892 121.516 20.7576 121.466 20.6319C121.416 20.5063 121.342 20.3918 121.247 20.2952C121.153 20.1986 121.04 20.1219 120.915 20.0696C120.79 20.0172 120.657 19.9903 120.521 19.9904C120.386 19.9904 120.252 20.0175 120.128 20.07C120.003 20.1225 119.89 20.1993 119.796 20.296L117.326 22.806L112.866 22.176C112.712 22.1534 112.555 22.167 112.408 22.2156C112.26 22.2642 112.126 22.3465 112.016 22.456L99.416 35.066C99.2297 35.2534 99.1252 35.5068 99.1252 35.771C99.1252 36.0352 99.2297 36.2886 99.416 36.476L100.126 37.186L98.706 38.606C98.6128 38.5134 98.5022 38.4401 98.3806 38.3903C98.259 38.3404 98.1288 38.315 97.9975 38.3154C97.8661 38.3159 97.736 38.3423 97.6148 38.393C97.4936 38.4437 97.3836 38.5178 97.291 38.611C97.1984 38.7042 97.1251 38.8148 97.0752 38.9364C97.0254 39.0579 97 39.1881 97.0004 39.3195C97.0009 39.4509 97.0272 39.5809 97.0779 39.7022C97.1287 39.8234 97.2028 39.9334 97.296 40.026L101.536 44.296C101.626 44.4007 101.736 44.4857 101.86 44.5457C101.984 44.6057 102.119 44.6395 102.257 44.6448C102.395 44.6501 102.532 44.6269 102.66 44.5766C102.789 44.5264 102.905 44.4501 103.003 44.3527C103.1 44.2552 103.176 44.1386 103.227 44.0103C103.277 43.882 103.3 43.7447 103.295 43.6069C103.289 43.4692 103.256 43.3341 103.196 43.21C103.136 43.086 103.051 42.9756 102.946 42.886L104.356 41.466L105.056 42.176C105.246 42.3619 105.5 42.4661 105.766 42.4661C106.032 42.4661 106.286 42.3619 106.476 42.176L109.716 38.936L112.256 36.406L112.266 36.356ZM101.536 41.426L100.126 40.016L101.536 38.596L102.946 40.016L101.536 41.426ZM105.776 40.016L105.066 39.296L102.236 36.476L101.536 35.776L113.076 24.226L116.796 24.756L117.326 28.466L111.556 34.236L109.436 32.116C109.249 31.9277 108.995 31.8214 108.73 31.8204C108.464 31.8195 108.209 31.924 108.021 32.111C107.833 32.298 107.726 32.5521 107.725 32.8175C107.724 33.0828 107.829 33.3377 108.016 33.526L110.146 35.646L109.016 36.766L106.896 34.646C106.708 34.459 106.453 34.3545 106.187 34.3554C105.922 34.3564 105.668 34.4627 105.481 34.651C105.294 34.8393 105.189 35.0942 105.19 35.3595C105.191 35.6249 105.298 35.879 105.486 36.066L107.646 38.186L105.776 40.016ZM124.046 37.086L122.236 32.846C122.159 32.6656 122.031 32.5118 121.867 32.4037C121.704 32.2956 121.512 32.2379 121.316 32.2379C121.12 32.2379 120.928 32.2956 120.765 32.4037C120.601 32.5118 120.473 32.6656 120.396 32.846L118.576 37.086C118.37 37.5429 118.282 38.0441 118.319 38.5439C118.357 39.0436 118.519 39.526 118.791 39.9469C119.063 40.3679 119.436 40.714 119.876 40.9536C120.317 41.1932 120.81 41.3188 121.311 41.3188C121.812 41.3188 122.305 41.1932 122.745 40.9536C123.186 40.714 123.559 40.3679 123.831 39.9469C124.103 39.526 124.265 39.0436 124.303 38.5439C124.34 38.0441 124.252 37.5429 124.046 37.086ZM122.126 38.796C121.992 38.9986 121.786 39.1437 121.551 39.2029C121.315 39.2621 121.066 39.231 120.851 39.1159C120.637 39.0007 120.474 38.8097 120.393 38.5803C120.313 38.3509 120.321 38.0997 120.416 37.876L121.316 35.776L122.216 37.876C122.276 38.0253 122.299 38.1869 122.284 38.347C122.268 38.5072 122.214 38.6612 122.126 38.796Z" fill="#585CE5"/>
<path d="M47 0H17C7.61116 0 0 7.61116 0 17V47C0 56.3888 7.61116 64 17 64H47C56.3888 64 64 56.3888 64 47V17C64 7.61116 56.3888 0 47 0Z" fill="white"/>
<path d="M6.512 76.706V74.402H7.718C8.654 74.402 9.05 74.834 9.05 75.563C9.05 76.265 8.654 76.706 7.718 76.706H6.512ZM9.887 75.563C9.887 74.537 9.194 73.727 7.718 73.727H5.693V80H6.512V77.381H7.718C9.275 77.381 9.887 76.517 9.887 75.563ZM10.9049 80H11.7239V77.273C11.7239 76.211 12.2999 75.689 13.1369 75.689C13.9649 75.689 14.5139 76.202 14.5139 77.21V80H15.3239V77.093C15.3239 75.68 14.4509 74.978 13.3529 74.978C12.6599 74.978 12.0479 75.257 11.7239 75.779V73.34H10.9049V80ZM16.3558 77.516C16.3558 79.046 17.3728 80.081 18.6868 80.081C19.5958 80.081 20.2348 79.613 20.5318 79.082V80H21.3598V75.068H20.5318V75.968C20.2438 75.455 19.6138 74.987 18.6958 74.987C17.3728 74.987 16.3558 75.977 16.3558 77.516ZM20.5318 77.525C20.5318 78.686 19.7578 79.361 18.8578 79.361C17.9578 79.361 17.1928 78.677 17.1928 77.516C17.1928 76.355 17.9578 75.698 18.8578 75.698C19.7578 75.698 20.5318 76.382 20.5318 77.525ZM23.5628 77.318C23.5628 76.175 24.1568 75.824 24.9398 75.824H25.1558V74.978C24.3728 74.978 23.8418 75.32 23.5628 75.869V75.068H22.7438V80H23.5628V77.318ZM33.2202 80H34.0302V77.093C34.0302 75.68 33.1572 74.978 32.0322 74.978C31.2762 74.978 30.5742 75.365 30.2862 76.076C29.9622 75.338 29.2872 74.978 28.4772 74.978C27.8292 74.978 27.2442 75.257 26.9202 75.779V75.068H26.1012V80H26.9202V77.282C26.9202 76.22 27.4872 75.689 28.3152 75.689C29.1252 75.689 29.6652 76.202 29.6652 77.21V80H30.4752V77.282C30.4752 76.22 31.0422 75.689 31.8702 75.689C32.6802 75.689 33.2202 76.202 33.2202 77.21V80ZM35.0677 77.516C35.0677 79.046 36.0847 80.081 37.3987 80.081C38.3077 80.081 38.9467 79.613 39.2437 79.082V80H40.0717V75.068H39.2437V75.968C38.9557 75.455 38.3257 74.987 37.4077 74.987C36.0847 74.987 35.0677 75.977 35.0677 77.516ZM39.2437 77.525C39.2437 78.686 38.4697 79.361 37.5697 79.361C36.6697 79.361 35.9047 78.677 35.9047 77.516C35.9047 76.355 36.6697 75.698 37.5697 75.698C38.4697 75.698 39.2437 76.382 39.2437 77.525ZM41.1497 77.525C41.1497 79.091 42.1487 80.081 43.5527 80.081C44.7767 80.081 45.5777 79.397 45.8297 78.416H44.9477C44.7677 79.037 44.2817 79.388 43.5527 79.388C42.6527 79.388 41.9867 78.749 41.9867 77.525C41.9867 76.319 42.6527 75.68 43.5527 75.68C44.2817 75.68 44.7767 76.058 44.9477 76.652H45.8297C45.5777 75.617 44.7767 74.987 43.5527 74.987C42.1487 74.987 41.1497 75.977 41.1497 77.525ZM46.9225 80H47.7415V75.068H46.9225V80ZM47.3455 74.267C47.6425 74.267 47.8855 74.024 47.8855 73.709C47.8855 73.394 47.6425 73.151 47.3455 73.151C47.0305 73.151 46.7875 73.394 46.7875 73.709C46.7875 74.024 47.0305 74.267 47.3455 74.267ZM52.6833 78.659C52.6473 76.895 49.7853 77.534 49.7853 76.364C49.7853 75.968 50.1453 75.68 50.7483 75.68C51.4053 75.68 51.7833 76.04 51.8193 76.535H52.6383C52.5843 75.572 51.8643 74.987 50.7753 74.987C49.6773 74.987 48.9663 75.608 48.9663 76.364C48.9663 78.2 51.8823 77.561 51.8823 78.659C51.8823 79.064 51.5223 79.388 50.8743 79.388C50.1813 79.388 49.7583 79.028 49.7133 78.551H48.8673C48.9213 79.451 49.7313 80.081 50.8833 80.081C51.9723 80.081 52.6833 79.469 52.6833 78.659ZM54.0195 78.65C54.0195 79.64 54.5145 80 55.3875 80H56.1255V79.307H55.5225C55.0185 79.307 54.8385 79.136 54.8385 78.65V75.743H56.1255V75.068H54.8385V73.826H54.0195V75.068H53.3805V75.743H54.0195V78.65Z" fill="#080A24"/>
<path d="M42.626 21.198C41.2112 19.7904 39.2967 19.0003 37.301 19.0003C35.3053 19.0003 33.3908 19.7904 31.976 21.198L21.206 31.968C19.8149 33.3847 19.0396 35.2933 19.0486 37.2788C19.0576 39.2642 19.8504 41.1658 21.2543 42.5697C22.6582 43.9736 24.5598 44.7663 26.5452 44.7754C28.5306 44.7844 30.4393 44.0091 31.856 42.618L42.626 31.848C44.0336 30.4332 44.8237 28.5187 44.8237 26.523C44.8237 24.5273 44.0336 22.6128 42.626 21.198ZM30.436 41.198C29.9257 41.7221 29.3164 42.1397 28.6434 42.4264C27.9704 42.7131 27.2472 42.8633 26.5157 42.8682C25.7842 42.8731 25.059 42.7327 24.3822 42.455C23.7054 42.1773 23.0906 41.768 22.5733 41.2507C22.056 40.7334 21.6467 40.1186 21.369 39.4418C21.0913 38.765 20.9509 38.0398 20.9558 37.3083C20.9607 36.5768 21.1108 35.8536 21.3976 35.1806C21.6843 34.5076 22.1018 33.8983 22.626 33.388L27.296 28.708L35.116 36.528L30.436 41.198ZM41.206 30.428L36.536 35.108L28.716 27.288L33.396 22.618C33.9063 22.0938 34.5156 21.6763 35.1886 21.3896C35.8616 21.1029 36.5848 20.9527 37.3163 20.9478C38.0478 20.9429 38.773 21.0833 39.4498 21.361C40.1266 21.6387 40.7414 22.048 41.2587 22.5653C41.7759 23.0826 42.1853 23.6974 42.463 24.3742C42.7406 25.051 42.8811 25.7762 42.8762 26.5077C42.8713 27.2392 42.7211 27.9624 42.4344 28.6354C42.1477 29.3084 41.7301 29.9177 41.206 30.428ZM39.916 29.908L37.966 31.858C37.7777 32.045 37.5228 32.1495 37.2575 32.1486C36.9921 32.1476 36.738 32.0413 36.551 31.853C36.364 31.6647 36.2595 31.4098 36.2604 31.1445C36.2614 30.8791 36.3677 30.625 36.556 30.438L38.506 28.488C38.7633 28.2316 38.9675 27.9269 39.1068 27.5914C39.2461 27.2559 39.3178 26.8963 39.3178 26.533C39.3178 26.1697 39.2461 25.8101 39.1068 25.4746C38.9675 25.1391 38.7633 24.8344 38.506 24.578C38.3422 24.3867 38.2566 24.1406 38.2663 23.8889C38.276 23.6373 38.3803 23.3985 38.5584 23.2204C38.7365 23.0423 38.9753 22.938 39.2269 22.9283C39.4786 22.9186 39.7247 23.0042 39.916 23.168C40.8088 24.0623 41.3102 25.2743 41.3102 26.538C41.3102 27.8017 40.8088 29.0137 39.916 29.908Z" fill="#585CE5"/>
</svg>
