<svg width="375" height="251" viewBox="0 0 375 251" fill="none" xmlns="http://www.w3.org/2000/svg">
<path opacity="0.12" d="M276.87 165.265L312.663 137.428L345.037 167.533L381.949 137.428L411.713 165.264" stroke="white" stroke-width="8" stroke-linecap="round"/>
<path opacity="0.12" d="M276.87 204.005L312.663 176.168L345.037 206.273L381.949 176.168L411.713 204.004" stroke="white" stroke-width="8" stroke-linecap="round"/>
<path opacity="0.12" d="M276.87 242.745L312.663 214.908L345.037 245.013L381.949 214.908L411.713 242.744" stroke="white" stroke-width="8" stroke-linecap="round"/>
<path opacity="0.12" d="M-30.13 33.265L5.66302 5.42801L38.037 35.533L74.949 5.42801L104.713 33.264" stroke="white" stroke-width="8" stroke-linecap="round"/>
<path opacity="0.12" d="M-30.13 72.005L5.66302 44.168L38.037 74.273L74.949 44.168L104.713 72.004" stroke="white" stroke-width="8" stroke-linecap="round"/>
<path opacity="0.12" d="M-30.13 110.745L5.66302 82.908L38.037 113.013L74.949 82.908L104.713 110.744" stroke="white" stroke-width="8" stroke-linecap="round"/>
</svg>
