<svg width="243" height="48" viewBox="0 0 243 48" fill="none" xmlns="http://www.w3.org/2000/svg">
<path d="M229 0H14C6.26801 0 0 6.26801 0 14V34C0 41.732 6.26801 48 14 48H229C236.732 48 243 41.732 243 34V14C243 6.26801 236.732 0 229 0Z" fill="white"/>
<path d="M57.204 26.792C57.204 23.672 52.596 25.16 52.596 22.736C52.596 21.764 53.412 21.224 54.396 21.236C55.56 21.248 56.124 21.968 56.22 22.556H57.132C56.988 21.404 56.028 20.516 54.432 20.516C52.812 20.516 51.744 21.464 51.744 22.76C51.744 25.916 56.352 24.356 56.352 26.828C56.352 27.692 55.668 28.376 54.504 28.376C53.148 28.376 52.632 27.536 52.56 26.84H51.672C51.72 28.124 52.824 29.084 54.504 29.084C56.28 29.084 57.204 27.932 57.204 26.792ZM61.6232 23.072C62.8352 23.072 63.9392 23.84 63.9032 25.364H59.2952C59.3912 23.84 60.4352 23.072 61.6232 23.072ZM64.6592 26.924H63.7712C63.5312 27.8 62.7752 28.388 61.6592 28.388C60.4352 28.388 59.3672 27.584 59.2952 26.048H64.7312C64.7552 25.82 64.7552 25.652 64.7552 25.388C64.7552 23.72 63.5792 22.352 61.6592 22.352C59.7752 22.352 58.4432 23.636 58.4432 25.724C58.4432 27.8 59.7992 29.096 61.6592 29.096C63.3032 29.096 64.3592 28.16 64.6592 26.924ZM65.908 25.712C65.908 27.764 67.24 29.096 69.028 29.096C70.336 29.096 71.248 28.388 71.632 27.548V29H72.472V22.448H71.632V23.888C71.26 23.06 70.36 22.352 69.04 22.352C67.24 22.352 65.908 23.66 65.908 25.712ZM71.632 25.724C71.632 27.356 70.54 28.364 69.196 28.364C67.816 28.364 66.76 27.368 66.76 25.712C66.76 24.044 67.816 23.084 69.196 23.084C70.54 23.084 71.632 24.092 71.632 25.724ZM75.2297 25.34C75.2297 23.696 76.1537 23.204 77.2457 23.204H77.4737V22.328C76.3457 22.328 75.5897 22.808 75.2297 23.612V22.448H74.3897V29H75.2297V25.34ZM78.3533 25.724C78.3533 27.8 79.6853 29.096 81.5333 29.096C83.1773 29.096 84.2453 28.172 84.5453 26.864H83.6453C83.4173 27.824 82.6373 28.388 81.5333 28.388C80.2493 28.388 79.2053 27.5 79.2053 25.724C79.2053 23.948 80.2493 23.072 81.5333 23.072C82.6373 23.072 83.4293 23.648 83.6453 24.584H84.5453C84.2453 23.228 83.1773 22.352 81.5333 22.352C79.6853 22.352 78.3533 23.648 78.3533 25.724ZM86.0967 29H86.9367V25.424C86.9367 23.828 87.7887 23.06 89.0127 23.06C90.2127 23.06 91.0047 23.804 91.0047 25.256V29H91.8327V25.16C91.8327 23.24 90.6687 22.328 89.2167 22.328C88.2207 22.328 87.3567 22.76 86.9367 23.564V20.12H86.0967V29ZM96.5994 25.712C96.5994 27.764 97.9314 29.096 99.7194 29.096C101.027 29.096 101.939 28.388 102.323 27.548V29H103.163V22.448H102.323V23.888C101.951 23.06 101.051 22.352 99.7314 22.352C97.9314 22.352 96.5994 23.66 96.5994 25.712ZM102.323 25.724C102.323 27.356 101.231 28.364 99.8874 28.364C98.5074 28.364 97.4514 27.368 97.4514 25.712C97.4514 24.044 98.5074 23.084 99.8874 23.084C101.231 23.084 102.323 24.092 102.323 25.724ZM107.99 25.712C107.99 27.764 109.322 29.096 111.122 29.096C112.418 29.096 113.33 28.4 113.714 27.536V29H114.554V20.12H113.714V23.864C113.294 23 112.31 22.352 111.134 22.352C109.322 22.352 107.99 23.66 107.99 25.712ZM113.714 25.724C113.714 27.356 112.622 28.364 111.278 28.364C109.898 28.364 108.842 27.368 108.842 25.712C108.842 24.044 109.898 23.084 111.278 23.084C112.622 23.084 113.714 24.092 113.714 25.724ZM122.64 25.724C122.64 23.636 121.212 22.352 119.364 22.352C117.528 22.352 116.088 23.636 116.088 25.724C116.088 27.8 117.492 29.096 119.34 29.096C121.188 29.096 122.64 27.8 122.64 25.724ZM116.94 25.724C116.94 23.924 118.104 23.084 119.352 23.084C120.6 23.084 121.776 23.924 121.776 25.724C121.776 27.524 120.576 28.364 119.34 28.364C118.092 28.364 116.94 27.524 116.94 25.724ZM123.787 25.724C123.787 27.8 125.119 29.096 126.967 29.096C128.611 29.096 129.679 28.172 129.979 26.864H129.079C128.851 27.824 128.071 28.388 126.967 28.388C125.683 28.388 124.639 27.5 124.639 25.724C124.639 23.948 125.683 23.072 126.967 23.072C128.071 23.072 128.863 23.648 129.079 24.584H129.979C129.679 23.228 128.611 22.352 126.967 22.352C125.119 22.352 123.787 23.648 123.787 25.724ZM131.77 27.224C131.77 28.532 132.382 29 133.522 29H134.422V28.28H133.654C132.898 28.28 132.622 28.028 132.622 27.224V23.156H134.422V22.448H132.622V20.804H131.77V22.448H130.858V23.156H131.77V27.224ZM141.976 25.724C141.976 23.636 140.548 22.352 138.7 22.352C136.864 22.352 135.424 23.636 135.424 25.724C135.424 27.8 136.828 29.096 138.676 29.096C140.524 29.096 141.976 27.8 141.976 25.724ZM136.276 25.724C136.276 23.924 137.44 23.084 138.688 23.084C139.936 23.084 141.112 23.924 141.112 25.724C141.112 27.524 139.912 28.364 138.676 28.364C137.428 28.364 136.276 27.524 136.276 25.724ZM144.347 25.34C144.347 23.696 145.271 23.204 146.363 23.204H146.591V22.328C145.463 22.328 144.707 22.808 144.347 23.612V22.448H143.507V29H144.347V25.34ZM157.316 25.724C157.316 23.636 155.888 22.352 154.04 22.352C152.204 22.352 150.764 23.636 150.764 25.724C150.764 27.8 152.168 29.096 154.016 29.096C155.864 29.096 157.316 27.8 157.316 25.724ZM151.616 25.724C151.616 23.924 152.78 23.084 154.028 23.084C155.276 23.084 156.452 23.924 156.452 25.724C156.452 27.524 155.252 28.364 154.016 28.364C152.768 28.364 151.616 27.524 151.616 25.724ZM159.687 25.34C159.687 23.696 160.611 23.204 161.703 23.204H161.931V22.328C160.803 22.328 160.047 22.808 159.687 23.612V22.448H158.847V29H159.687V25.34ZM171.023 27.26C170.987 24.944 167.111 25.892 167.111 24.116C167.111 23.54 167.663 23.072 168.539 23.072C169.535 23.072 170.075 23.624 170.123 24.356H170.963C170.891 23.096 169.967 22.352 168.563 22.352C167.183 22.352 166.259 23.156 166.259 24.128C166.259 26.588 170.195 25.64 170.195 27.26C170.195 27.884 169.667 28.388 168.731 28.388C167.663 28.388 167.039 27.872 166.967 27.152H166.103C166.211 28.352 167.255 29.096 168.743 29.096C170.099 29.096 171.023 28.316 171.023 27.26ZM173.433 23.888V22.448H172.605V32.096H173.433V27.56C173.817 28.376 174.729 29.096 176.037 29.096C177.825 29.096 179.157 27.764 179.157 25.712C179.157 23.66 177.825 22.352 176.037 22.352C174.729 22.352 173.817 23.06 173.433 23.888ZM178.305 25.712C178.305 27.368 177.249 28.364 175.869 28.364C174.537 28.364 173.433 27.356 173.433 25.724C173.433 24.092 174.537 23.084 175.869 23.084C177.249 23.084 178.305 24.044 178.305 25.712ZM183.498 23.072C184.71 23.072 185.814 23.84 185.778 25.364H181.17C181.266 23.84 182.31 23.072 183.498 23.072ZM186.534 26.924H185.646C185.406 27.8 184.65 28.388 183.534 28.388C182.31 28.388 181.242 27.584 181.17 26.048H186.606C186.63 25.82 186.63 25.652 186.63 25.388C186.63 23.72 185.454 22.352 183.534 22.352C181.65 22.352 180.318 23.636 180.318 25.724C180.318 27.8 181.674 29.096 183.534 29.096C185.178 29.096 186.234 28.16 186.534 26.924ZM187.783 25.724C187.783 27.8 189.115 29.096 190.963 29.096C192.607 29.096 193.675 28.172 193.975 26.864H193.075C192.847 27.824 192.067 28.388 190.963 28.388C189.679 28.388 188.635 27.5 188.635 25.724C188.635 23.948 189.679 23.072 190.963 23.072C192.067 23.072 192.859 23.648 193.075 24.584H193.975C193.675 23.228 192.607 22.352 190.963 22.352C189.115 22.352 187.783 23.648 187.783 25.724ZM195.526 29H196.366V22.448H195.526V29ZM195.946 21.212C196.282 21.212 196.558 20.948 196.558 20.588C196.558 20.228 196.282 19.976 195.946 19.976C195.61 19.976 195.334 20.228 195.334 20.588C195.334 20.948 195.61 21.212 195.946 21.212ZM197.885 25.712C197.885 27.764 199.217 29.096 201.005 29.096C202.313 29.096 203.225 28.388 203.609 27.548V29H204.449V22.448H203.609V23.888C203.237 23.06 202.337 22.352 201.017 22.352C199.217 22.352 197.885 23.66 197.885 25.712ZM203.609 25.724C203.609 27.356 202.517 28.364 201.173 28.364C199.793 28.364 198.737 27.368 198.737 25.712C198.737 24.044 199.793 23.084 201.173 23.084C202.517 23.084 203.609 24.092 203.609 25.724ZM206.366 29H207.206V20.12H206.366V29ZM209.108 29H209.948V22.448H209.108V29ZM209.528 21.212C209.864 21.212 210.14 20.948 210.14 20.588C210.14 20.228 209.864 19.976 209.528 19.976C209.192 19.976 208.916 20.228 208.916 20.588C208.916 20.948 209.192 21.212 209.528 21.212ZM212.091 27.224C212.091 28.532 212.703 29 213.843 29H214.743V28.28H213.975C213.219 28.28 212.943 28.028 212.943 27.224V23.156H214.743V22.448H212.943V20.804H212.091V22.448H211.179V23.156H212.091V27.224ZM218.504 28.04L216.272 22.448H215.348L218.036 28.964L216.764 32.084H217.64L221.528 22.448H220.664L218.504 28.04Z" fill="#656565"/>
<path d="M36.71 31.29L33.31 27.9C34.407 26.5025 35.0022 24.7767 35 23C35 21.4178 34.5308 19.871 33.6518 18.5554C32.7727 17.2398 31.5233 16.2145 30.0615 15.609C28.5997 15.0035 26.9911 14.845 25.4393 15.1537C23.8874 15.4624 22.462 16.2243 21.3431 17.3431C20.2243 18.462 19.4624 19.8874 19.1537 21.4393C18.845 22.9911 19.0035 24.5997 19.609 26.0615C20.2145 27.5233 21.2398 28.7727 22.5554 29.6518C23.871 30.5308 25.4178 31 27 31C28.7767 31.0022 30.5025 30.407 31.9 29.31L35.29 32.71C35.3832 32.8032 35.4939 32.8772 35.6158 32.9277C35.7376 32.9781 35.8681 33.0041 36 33.0041C36.1319 33.0041 36.2624 32.9781 36.3843 32.9277C36.5061 32.8772 36.6168 32.8032 36.71 32.71C36.8032 32.6168 36.8772 32.5061 36.9277 32.3843C36.9781 32.2624 37.0041 32.1319 37.0041 32C37.0041 31.8681 36.9781 31.7376 36.9277 31.6158C36.8772 31.4939 36.8032 31.3832 36.71 31.29ZM21 23C21 21.8133 21.3519 20.6533 22.0112 19.6666C22.6705 18.6799 23.6075 17.9109 24.7039 17.4567C25.8003 17.0026 27.0067 16.8838 28.1705 17.1153C29.3344 17.3468 30.4035 17.9182 31.2426 18.7574C32.0818 19.5965 32.6532 20.6656 32.8847 21.8295C33.1162 22.9933 32.9974 24.1997 32.5433 25.2961C32.0892 26.3925 31.3201 27.3295 30.3334 27.9888C29.3467 28.6481 28.1867 29 27 29C25.4087 29 23.8826 28.3679 22.7574 27.2426C21.6321 26.1174 21 24.5913 21 23Z" fill="#656565"/>
</svg>
