<svg width="302" height="120" viewBox="0 0 302 120" fill="none" xmlns="http://www.w3.org/2000/svg">
<path d="M285 36H255C245.611 36 238 43.6112 238 53V83C238 92.3888 245.611 100 255 100H285C294.389 100 302 92.3888 302 83V53C302 43.6112 294.389 36 285 36Z" fill="white"/>
<path d="M249.306 110.393H251.025V116H251.844V110.393H253.554V109.727H249.306V110.393ZM254.562 116H255.381V113.273C255.381 112.211 255.957 111.689 256.794 111.689C257.622 111.689 258.171 112.202 258.171 113.21V116H258.981V113.093C258.981 111.68 258.108 110.978 257.01 110.978C256.317 110.978 255.705 111.257 255.381 111.779V109.34H254.562V116ZM264.693 111.068H263.874V113.777C263.874 114.839 263.307 115.361 262.461 115.361C261.633 115.361 261.084 114.848 261.084 113.849V111.068H260.274V113.957C260.274 115.37 261.165 116.072 262.299 116.072C262.956 116.072 263.559 115.784 263.874 115.271V116H264.693V111.068ZM266.895 113.318C266.895 112.175 267.489 111.824 268.272 111.824H268.488V110.978C267.705 110.978 267.174 111.32 266.895 111.869V111.068H266.076V116H266.895V113.318ZM272.979 114.659C272.943 112.895 270.081 113.534 270.081 112.364C270.081 111.968 270.441 111.68 271.044 111.68C271.701 111.68 272.079 112.04 272.115 112.535H272.934C272.88 111.572 272.16 110.987 271.071 110.987C269.973 110.987 269.262 111.608 269.262 112.364C269.262 114.2 272.178 113.561 272.178 114.659C272.178 115.064 271.818 115.388 271.17 115.388C270.477 115.388 270.054 115.028 270.009 114.551H269.163C269.217 115.451 270.027 116.081 271.179 116.081C272.268 116.081 272.979 115.469 272.979 114.659ZM273.829 113.516C273.829 115.046 274.846 116.081 276.169 116.081C277.069 116.081 277.708 115.622 278.005 115.073V116H278.833V109.34H278.005V111.95C277.663 111.383 276.952 110.987 276.178 110.987C274.846 110.987 273.829 111.977 273.829 113.516ZM278.005 113.525C278.005 114.686 277.231 115.361 276.331 115.361C275.431 115.361 274.666 114.677 274.666 113.516C274.666 112.355 275.431 111.698 276.331 111.698C277.231 111.698 278.005 112.382 278.005 113.525ZM279.911 113.516C279.911 115.046 280.928 116.081 282.242 116.081C283.151 116.081 283.79 115.613 284.087 115.082V116H284.915V111.068H284.087V111.968C283.799 111.455 283.169 110.987 282.251 110.987C280.928 110.987 279.911 111.977 279.911 113.516ZM284.087 113.525C284.087 114.686 283.313 115.361 282.413 115.361C281.513 115.361 280.748 114.677 280.748 113.516C280.748 112.355 281.513 111.698 282.413 111.698C283.313 111.698 284.087 112.382 284.087 113.525ZM288.171 115.064L286.623 111.068H285.714L287.703 115.946L286.731 118.322H287.577L290.547 111.068H289.701L288.171 115.064Z" fill="black"/>
<path d="M265.918 67.856H274.576V66.488H268.384C270.706 64.598 274.198 61.844 274.198 58.604C274.198 56.192 272.614 54.752 270.166 54.752C267.826 54.752 266.08 56.192 265.972 58.964H267.556C267.628 57.326 268.492 56.156 270.184 56.156C271.948 56.156 272.578 57.236 272.578 58.676C272.578 61.34 269.338 63.932 265.918 66.686V67.856Z" fill="#080A24"/>
<path d="M264.42 83.34C264.42 79.728 259.156 81.296 259.156 78.776C259.156 77.726 259.982 77.18 261.032 77.208C262.222 77.222 262.838 77.964 262.922 78.622H264.322C264.168 77.138 262.95 76.116 261.088 76.116C259.156 76.116 257.854 77.208 257.854 78.818C257.854 82.444 263.132 80.764 263.132 83.396C263.132 84.32 262.404 85.02 261.172 85.02C259.814 85.02 259.24 84.208 259.156 83.396H257.798C257.826 85.006 259.212 86.098 261.172 86.098C263.286 86.098 264.42 84.726 264.42 83.34ZM269.557 79.28C270.873 79.28 271.993 80.106 271.979 81.604H267.135C267.275 80.106 268.311 79.28 269.557 79.28ZM273.141 83.634H271.769C271.489 84.46 270.761 85.048 269.613 85.048C268.311 85.048 267.219 84.194 267.121 82.64H273.253C273.281 82.374 273.295 82.15 273.295 81.87C273.295 79.77 271.839 78.202 269.613 78.202C267.373 78.202 265.819 79.728 265.819 82.15C265.819 84.586 267.429 86.126 269.613 86.126C271.517 86.126 272.749 85.034 273.141 83.634ZM276.25 79.742V78.328H274.976V89.64H276.25V84.586C276.726 85.37 277.72 86.126 279.12 86.126C281.178 86.126 282.76 84.516 282.76 82.136C282.76 79.742 281.178 78.202 279.12 78.202C277.72 78.202 276.712 78.93 276.25 79.742ZM281.458 82.136C281.458 83.942 280.268 85.006 278.854 85.006C277.468 85.006 276.25 83.956 276.25 82.15C276.25 80.372 277.468 79.308 278.854 79.308C280.268 79.308 281.458 80.33 281.458 82.136Z" fill="#656565"/>
<path d="M206 36H176C166.611 36 159 43.6112 159 53V83C159 92.3888 166.611 100 176 100H206C215.389 100 223 92.3888 223 83V53C223 43.6112 215.389 36 206 36Z" fill="white"/>
<path d="M165.962 116.009L166.871 116L168.383 110.951L169.841 116H170.759L172.577 109.727H171.695L170.318 115.028L168.878 109.727H167.96L166.448 115.046L165.08 109.727H164.207L165.962 116.009ZM175.57 111.68C176.416 111.68 177.136 112.211 177.127 113.174H174.013C174.103 112.211 174.769 111.68 175.57 111.68ZM177.874 114.479H176.992C176.812 115.01 176.344 115.388 175.606 115.388C174.769 115.388 174.067 114.839 174.004 113.84H177.946C177.964 113.669 177.973 113.525 177.973 113.345C177.973 111.995 177.037 110.987 175.606 110.987C174.166 110.987 173.167 111.968 173.167 113.525C173.167 115.091 174.202 116.081 175.606 116.081C176.83 116.081 177.622 115.379 177.874 114.479ZM178.748 113.516C178.748 115.046 179.765 116.081 181.088 116.081C181.988 116.081 182.627 115.622 182.924 115.073V116H183.752V109.34H182.924V111.95C182.582 111.383 181.871 110.987 181.097 110.987C179.765 110.987 178.748 111.977 178.748 113.516ZM182.924 113.525C182.924 114.686 182.15 115.361 181.25 115.361C180.35 115.361 179.585 114.677 179.585 113.516C179.585 112.355 180.35 111.698 181.25 111.698C182.15 111.698 182.924 112.382 182.924 113.525ZM188.745 116H189.555V113.093C189.555 111.68 188.682 110.978 187.539 110.978C186.873 110.978 186.279 111.257 185.955 111.77V111.068H185.136V116H185.955V113.273C185.955 112.211 186.531 111.689 187.368 111.689C188.196 111.689 188.745 112.202 188.745 113.21V116ZM192.99 111.68C193.836 111.68 194.556 112.211 194.547 113.174H191.433C191.523 112.211 192.189 111.68 192.99 111.68ZM195.294 114.479H194.412C194.232 115.01 193.764 115.388 193.026 115.388C192.189 115.388 191.487 114.839 191.424 113.84H195.366C195.384 113.669 195.393 113.525 195.393 113.345C195.393 111.995 194.457 110.987 193.026 110.987C191.586 110.987 190.587 111.968 190.587 113.525C190.587 115.091 191.622 116.081 193.026 116.081C194.25 116.081 195.042 115.379 195.294 114.479ZM200.02 114.659C199.984 112.895 197.122 113.534 197.122 112.364C197.122 111.968 197.482 111.68 198.085 111.68C198.742 111.68 199.12 112.04 199.156 112.535H199.975C199.921 111.572 199.201 110.987 198.112 110.987C197.014 110.987 196.303 111.608 196.303 112.364C196.303 114.2 199.219 113.561 199.219 114.659C199.219 115.064 198.859 115.388 198.211 115.388C197.518 115.388 197.095 115.028 197.05 114.551H196.204C196.258 115.451 197.068 116.081 198.22 116.081C199.309 116.081 200.02 115.469 200.02 114.659ZM200.87 113.516C200.87 115.046 201.887 116.081 203.21 116.081C204.11 116.081 204.749 115.622 205.046 115.073V116H205.874V109.34H205.046V111.95C204.704 111.383 203.993 110.987 203.219 110.987C201.887 110.987 200.87 111.977 200.87 113.516ZM205.046 113.525C205.046 114.686 204.272 115.361 203.372 115.361C202.472 115.361 201.707 114.677 201.707 113.516C201.707 112.355 202.472 111.698 203.372 111.698C204.272 111.698 205.046 112.382 205.046 113.525ZM206.952 113.516C206.952 115.046 207.969 116.081 209.283 116.081C210.192 116.081 210.831 115.613 211.128 115.082V116H211.956V111.068H211.128V111.968C210.84 111.455 210.21 110.987 209.292 110.987C207.969 110.987 206.952 111.977 206.952 113.516ZM211.128 113.525C211.128 114.686 210.354 115.361 209.454 115.361C208.554 115.361 207.789 114.677 207.789 113.516C207.789 112.355 208.554 111.698 209.454 111.698C210.354 111.698 211.128 112.382 211.128 113.525ZM215.212 115.064L213.664 111.068H212.755L214.744 115.946L213.772 118.322H214.618L217.588 111.068H216.742L215.212 115.064Z" fill="black"/>
<path d="M190.412 68H192.068V54.986H188.684V56.48H190.412V68Z" fill="#080A24"/>
<path d="M185.42 83.34C185.42 79.728 180.156 81.296 180.156 78.776C180.156 77.726 180.982 77.18 182.032 77.208C183.222 77.222 183.838 77.964 183.922 78.622H185.322C185.168 77.138 183.95 76.116 182.088 76.116C180.156 76.116 178.854 77.208 178.854 78.818C178.854 82.444 184.132 80.764 184.132 83.396C184.132 84.32 183.404 85.02 182.172 85.02C180.814 85.02 180.24 84.208 180.156 83.396H178.798C178.826 85.006 180.212 86.098 182.172 86.098C184.286 86.098 185.42 84.726 185.42 83.34ZM190.557 79.28C191.873 79.28 192.993 80.106 192.979 81.604H188.135C188.275 80.106 189.311 79.28 190.557 79.28ZM194.141 83.634H192.769C192.489 84.46 191.761 85.048 190.613 85.048C189.311 85.048 188.219 84.194 188.121 82.64H194.253C194.281 82.374 194.295 82.15 194.295 81.87C194.295 79.77 192.839 78.202 190.613 78.202C188.373 78.202 186.819 79.728 186.819 82.15C186.819 84.586 188.429 86.126 190.613 86.126C192.517 86.126 193.749 85.034 194.141 83.634ZM197.25 79.742V78.328H195.976V89.64H197.25V84.586C197.726 85.37 198.72 86.126 200.12 86.126C202.178 86.126 203.76 84.516 203.76 82.136C203.76 79.742 202.178 78.202 200.12 78.202C198.72 78.202 197.712 78.93 197.25 79.742ZM202.458 82.136C202.458 83.942 201.268 85.006 199.854 85.006C198.468 85.006 197.25 83.956 197.25 82.15C197.25 80.372 198.468 79.308 199.854 79.308C201.268 79.308 202.458 80.33 202.458 82.136Z" fill="#656565"/>
<path d="M126 36H96C86.6112 36 79 43.6112 79 53V83C79 92.3888 86.6112 100 96 100H126C135.389 100 143 92.3888 143 83V53C143 43.6112 135.389 36 126 36Z" fill="#ED8950"/>
<path d="M92.306 110.393H94.025V116H94.844V110.393H96.554V109.727H92.306V110.393ZM101.936 111.068H101.117V113.777C101.117 114.839 100.55 115.361 99.7041 115.361C98.8761 115.361 98.3271 114.848 98.3271 113.849V111.068H97.5171V113.957C97.5171 115.37 98.4081 116.072 99.5421 116.072C100.199 116.072 100.802 115.784 101.117 115.271V116H101.936V111.068ZM105.416 111.68C106.262 111.68 106.982 112.211 106.973 113.174H103.859C103.949 112.211 104.615 111.68 105.416 111.68ZM107.72 114.479H106.838C106.658 115.01 106.19 115.388 105.452 115.388C104.615 115.388 103.913 114.839 103.85 113.84H107.792C107.81 113.669 107.819 113.525 107.819 113.345C107.819 111.995 106.883 110.987 105.452 110.987C104.012 110.987 103.013 111.968 103.013 113.525C103.013 115.091 104.048 116.081 105.452 116.081C106.676 116.081 107.468 115.379 107.72 114.479ZM112.446 114.659C112.41 112.895 109.548 113.534 109.548 112.364C109.548 111.968 109.908 111.68 110.511 111.68C111.168 111.68 111.546 112.04 111.582 112.535H112.401C112.347 111.572 111.627 110.987 110.538 110.987C109.44 110.987 108.729 111.608 108.729 112.364C108.729 114.2 111.645 113.561 111.645 114.659C111.645 115.064 111.285 115.388 110.637 115.388C109.944 115.388 109.521 115.028 109.476 114.551H108.63C108.684 115.451 109.494 116.081 110.646 116.081C111.735 116.081 112.446 115.469 112.446 114.659ZM113.296 113.516C113.296 115.046 114.313 116.081 115.636 116.081C116.536 116.081 117.175 115.622 117.472 115.073V116H118.3V109.34H117.472V111.95C117.13 111.383 116.419 110.987 115.645 110.987C114.313 110.987 113.296 111.977 113.296 113.516ZM117.472 113.525C117.472 114.686 116.698 115.361 115.798 115.361C114.898 115.361 114.133 114.677 114.133 113.516C114.133 112.355 114.898 111.698 115.798 111.698C116.698 111.698 117.472 112.382 117.472 113.525ZM119.378 113.516C119.378 115.046 120.395 116.081 121.709 116.081C122.618 116.081 123.257 115.613 123.554 115.082V116H124.382V111.068H123.554V111.968C123.266 111.455 122.636 110.987 121.718 110.987C120.395 110.987 119.378 111.977 119.378 113.516ZM123.554 113.525C123.554 114.686 122.78 115.361 121.88 115.361C120.98 115.361 120.215 114.677 120.215 113.516C120.215 112.355 120.98 111.698 121.88 111.698C122.78 111.698 123.554 112.382 123.554 113.525ZM127.638 115.064L126.09 111.068H125.181L127.17 115.946L126.198 118.322H127.044L130.014 111.068H129.168L127.638 115.064Z" fill="black"/>
<path d="M104.08 58.262H105.682C105.844 57.002 106.762 56.138 108.292 56.138C109.858 56.138 110.686 57.002 110.686 58.244C110.686 59.756 109.516 60.422 107.338 60.44H106.906V61.808H107.32C109.66 61.808 110.938 62.51 110.938 64.346C110.938 65.678 110.11 66.704 108.364 66.704C106.636 66.704 105.628 65.642 105.466 64.256H103.882C104.08 66.776 105.916 68.09 108.382 68.09C111.1 68.09 112.504 66.506 112.504 64.49C112.504 62.618 111.478 61.502 109.966 61.142V61.052C111.334 60.746 112.27 59.576 112.27 58.082C112.27 56.21 110.884 54.734 108.346 54.734C105.934 54.734 104.242 56.03 104.08 58.262ZM116.012 68H117.668V54.986H114.284V56.48H116.012V68Z" fill="white"/>
<path d="M104.63 86H105.974L102.46 76.298H100.99L97.462 86H98.806L99.59 83.83H103.846L104.63 86ZM103.482 82.794H99.954L101.718 77.866L103.482 82.794ZM114.316 78.328H113.042V82.542C113.042 84.194 112.16 85.006 110.844 85.006C109.556 85.006 108.702 84.208 108.702 82.654V78.328H107.442V82.822C107.442 85.02 108.828 86.112 110.592 86.112C111.614 86.112 112.552 85.664 113.042 84.866V86H114.316V78.328ZM115.991 82.136C115.991 84.516 117.573 86.126 119.631 86.126C121.031 86.126 122.025 85.384 122.487 84.558V86.168C122.487 87.806 121.465 88.674 120.107 88.674C118.847 88.674 117.937 88.044 117.657 87.12H116.397C116.649 88.758 118.091 89.78 120.107 89.78C122.361 89.78 123.775 88.282 123.775 86.168V78.328H122.487V79.728C122.039 78.902 121.031 78.202 119.631 78.202C117.573 78.202 115.991 79.742 115.991 82.136ZM122.487 82.15C122.487 83.956 121.283 85.006 119.883 85.006C118.483 85.006 117.293 83.942 117.293 82.136C117.293 80.33 118.483 79.308 119.883 79.308C121.283 79.308 122.487 80.372 122.487 82.15Z" fill="white"/>
<path d="M47 36H17C7.61116 36 0 43.6112 0 53V83C0 92.3888 7.61116 100 17 100H47C56.3888 100 64 92.3888 64 83V53C64 43.6112 56.3888 36 47 36Z" fill="white"/>
<path d="M14.693 116H15.512V111.347L17.591 116H18.167L20.237 111.356V116H21.056V109.772H20.183L17.879 114.92L15.575 109.772H14.693V116ZM27.125 113.525C27.125 111.968 26.036 110.987 24.632 110.987C23.237 110.987 22.139 111.968 22.139 113.525C22.139 115.091 23.201 116.081 24.596 116.081C26 116.081 27.125 115.091 27.125 113.525ZM22.976 113.525C22.976 112.283 23.759 111.698 24.623 111.698C25.469 111.698 26.288 112.283 26.288 113.525C26.288 114.776 25.451 115.361 24.596 115.361C23.741 115.361 22.976 114.776 22.976 113.525ZM31.8108 116H32.6208V113.093C32.6208 111.68 31.7478 110.978 30.6048 110.978C29.9388 110.978 29.3448 111.257 29.0208 111.77V111.068H28.2018V116H29.0208V113.273C29.0208 112.211 29.5968 111.689 30.4338 111.689C31.2618 111.689 31.8108 112.202 31.8108 113.21V116ZM33.6526 113.516C33.6526 115.046 34.6696 116.081 35.9926 116.081C36.8926 116.081 37.5316 115.622 37.8286 115.073V116H38.6566V109.34H37.8286V111.95C37.4866 111.383 36.7756 110.987 36.0016 110.987C34.6696 110.987 33.6526 111.977 33.6526 113.516ZM37.8286 113.525C37.8286 114.686 37.0546 115.361 36.1546 115.361C35.2546 115.361 34.4896 114.677 34.4896 113.516C34.4896 112.355 35.2546 111.698 36.1546 111.698C37.0546 111.698 37.8286 112.382 37.8286 113.525ZM39.7347 113.516C39.7347 115.046 40.7517 116.081 42.0657 116.081C42.9747 116.081 43.6137 115.613 43.9107 115.082V116H44.7387V111.068H43.9107V111.968C43.6227 111.455 42.9927 110.987 42.0747 110.987C40.7517 110.987 39.7347 111.977 39.7347 113.516ZM43.9107 113.525C43.9107 114.686 43.1367 115.361 42.2367 115.361C41.3367 115.361 40.5717 114.677 40.5717 113.516C40.5717 112.355 41.3367 111.698 42.2367 111.698C43.1367 111.698 43.9107 112.382 43.9107 113.525ZM47.9947 115.064L46.4467 111.068H45.5377L47.5267 115.946L46.5547 118.322H47.4007L50.3707 111.068H49.5247L47.9947 115.064Z" fill="black"/>
<path d="M22.08 58.262H23.682C23.844 57.002 24.762 56.138 26.292 56.138C27.858 56.138 28.686 57.002 28.686 58.244C28.686 59.756 27.516 60.422 25.338 60.44H24.906V61.808H25.32C27.66 61.808 28.938 62.51 28.938 64.346C28.938 65.678 28.11 66.704 26.364 66.704C24.636 66.704 23.628 65.642 23.466 64.256H21.882C22.08 66.776 23.916 68.09 26.382 68.09C29.1 68.09 30.504 66.506 30.504 64.49C30.504 62.618 29.478 61.502 27.966 61.142V61.052C29.334 60.746 30.27 59.576 30.27 58.082C30.27 56.21 28.884 54.734 26.346 54.734C23.934 54.734 22.242 56.03 22.08 58.262ZM32.7156 61.358C32.7156 65.138 33.6516 68 37.2516 68C40.8336 68 41.7696 65.138 41.7696 61.358C41.7696 57.632 40.8336 54.788 37.2516 54.788C33.6516 54.788 32.7156 57.632 32.7156 61.358ZM40.1496 61.358C40.1496 64.166 39.8076 66.506 37.2516 66.506C34.6776 66.506 34.3356 64.166 34.3356 61.358C34.3356 58.658 34.6776 56.282 37.2516 56.282C39.8076 56.282 40.1496 58.658 40.1496 61.358Z" fill="#080A24"/>
<path d="M25.63 86H26.974L23.46 76.298H21.99L18.462 86H19.806L20.59 83.83H24.846L25.63 86ZM24.482 82.794H20.954L22.718 77.866L24.482 82.794ZM35.3156 78.328H34.0416V82.542C34.0416 84.194 33.1596 85.006 31.8436 85.006C30.5556 85.006 29.7016 84.208 29.7016 82.654V78.328H28.4416V82.822C28.4416 85.02 29.8276 86.112 31.5916 86.112C32.6136 86.112 33.5516 85.664 34.0416 84.866V86H35.3156V78.328ZM36.9907 82.136C36.9907 84.516 38.5727 86.126 40.6307 86.126C42.0307 86.126 43.0247 85.384 43.4867 84.558V86.168C43.4867 87.806 42.4647 88.674 41.1067 88.674C39.8467 88.674 38.9367 88.044 38.6567 87.12H37.3967C37.6487 88.758 39.0907 89.78 41.1067 89.78C43.3607 89.78 44.7747 88.282 44.7747 86.168V78.328H43.4867V79.728C43.0387 78.902 42.0307 78.202 40.6307 78.202C38.5727 78.202 36.9907 79.742 36.9907 82.136ZM43.4867 82.15C43.4867 83.956 42.2827 85.006 40.8827 85.006C39.4827 85.006 38.2927 83.942 38.2927 82.136C38.2927 80.33 39.4827 79.308 40.8827 79.308C42.2827 79.308 43.4867 80.372 43.4867 82.15Z" fill="#656565"/>
<path d="M9.54 16.58C9.54 11.936 2.772 13.952 2.772 10.712C2.772 9.362 3.834 8.66 5.184 8.696C6.714 8.714 7.506 9.668 7.614 10.514H9.414C9.216 8.606 7.65 7.292 5.256 7.292C2.772 7.292 1.098 8.696 1.098 10.766C1.098 15.428 7.884 13.268 7.884 16.652C7.884 17.84 6.948 18.74 5.364 18.74C3.618 18.74 2.88 17.696 2.772 16.652H1.026C1.062 18.722 2.844 20.126 5.364 20.126C8.082 20.126 9.54 18.362 9.54 16.58ZM16.1445 11.36C17.8365 11.36 19.2765 12.422 19.2585 14.348H13.0305C13.2105 12.422 14.5425 11.36 16.1445 11.36ZM20.7525 16.958H18.9885C18.6285 18.02 17.6925 18.776 16.2165 18.776C14.5425 18.776 13.1385 17.678 13.0125 15.68H20.8965C20.9325 15.338 20.9505 15.05 20.9505 14.69C20.9505 11.99 19.0785 9.974 16.2165 9.974C13.3365 9.974 11.3385 11.936 11.3385 15.05C11.3385 18.182 13.4085 20.162 16.2165 20.162C18.6645 20.162 20.2485 18.758 20.7525 16.958ZM23.1126 20H24.7506V6.68H23.1126V20ZM31.7363 11.36C33.4283 11.36 34.8683 12.422 34.8503 14.348H28.6223C28.8022 12.422 30.1343 11.36 31.7363 11.36ZM36.3443 16.958H34.5803C34.2203 18.02 33.2843 18.776 31.8083 18.776C30.1343 18.776 28.7303 17.678 28.6043 15.68H36.4883C36.5243 15.338 36.5423 15.05 36.5423 14.69C36.5423 11.99 34.6703 9.974 31.8083 9.974C28.9283 9.974 26.9303 11.936 26.9303 15.05C26.9303 18.182 29.0003 20.162 31.8083 20.162C34.2563 20.162 35.8403 18.758 36.3443 16.958ZM38.0924 15.05C38.0924 18.182 40.0904 20.162 42.8984 20.162C45.3464 20.162 46.9484 18.794 47.4524 16.832H45.6884C45.3284 18.074 44.3564 18.776 42.8984 18.776C41.0984 18.776 39.7664 17.498 39.7664 15.05C39.7664 12.638 41.0984 11.36 42.8984 11.36C44.3564 11.36 45.3464 12.116 45.6884 13.304H47.4524C46.9484 11.234 45.3464 9.974 42.8984 9.974C40.0904 9.974 38.0924 11.954 38.0924 15.05ZM49.998 17.3C49.998 19.28 50.988 20 52.734 20H54.21V18.614H53.004C51.996 18.614 51.636 18.272 51.636 17.3V11.486H54.21V10.136H51.636V7.652H49.998V10.136H48.72V11.486H49.998V17.3ZM64.8994 7.454H60.9934V20H64.8994C69.0214 20 71.5594 17.642 71.5594 13.754C71.5594 9.866 69.0214 7.454 64.8994 7.454ZM62.6314 18.65V8.786H64.8994C68.1754 8.786 69.8854 10.694 69.8854 13.754C69.8854 16.814 68.1754 18.65 64.8994 18.65H62.6314ZM73.108 15.032C73.108 18.092 75.142 20.162 77.77 20.162C79.588 20.162 80.866 19.226 81.46 18.164V20H83.116V10.136H81.46V11.936C80.884 10.91 79.624 9.974 77.788 9.974C75.142 9.974 73.108 11.954 73.108 15.032ZM81.46 15.05C81.46 17.372 79.912 18.722 78.112 18.722C76.312 18.722 74.782 17.354 74.782 15.032C74.782 12.71 76.312 11.396 78.112 11.396C79.912 11.396 81.46 12.764 81.46 15.05ZM86.244 17.3C86.244 19.28 87.234 20 88.98 20H90.456V18.614H89.25C88.242 18.614 87.882 18.272 87.882 17.3V11.486H90.456V10.136H87.882V7.652H86.244V10.136H84.966V11.486H86.244V17.3ZM96.6347 11.36C98.3267 11.36 99.7667 12.422 99.7487 14.348H93.5207C93.7007 12.422 95.0327 11.36 96.6347 11.36ZM101.243 16.958H99.4787C99.1187 18.02 98.1827 18.776 96.7067 18.776C95.0327 18.776 93.6287 17.678 93.5027 15.68H101.387C101.423 15.338 101.441 15.05 101.441 14.69C101.441 11.99 99.5687 9.974 96.7067 9.974C93.8267 9.974 91.8287 11.936 91.8287 15.05C91.8287 18.182 93.8987 20.162 96.7067 20.162C99.1547 20.162 100.739 18.758 101.243 16.958Z" fill="#080A24"/>
</svg>
