<svg width="302" height="136" viewBox="0 0 302 136" fill="none" xmlns="http://www.w3.org/2000/svg">
<path d="M82 36H10C4.47715 36 0 40.4772 0 46V70C0 75.5228 4.47715 80 10 80H82C87.5229 80 92 75.5228 92 70V46C92 40.4772 87.5229 36 82 36Z" fill="white"/>
<path d="M15.868 58.834C15.868 61.774 16.596 64 19.396 64C22.182 64 22.91 61.774 22.91 58.834C22.91 55.936 22.182 53.724 19.396 53.724C16.596 53.724 15.868 55.936 15.868 58.834ZM21.65 58.834C21.65 61.018 21.384 62.838 19.396 62.838C17.394 62.838 17.128 61.018 17.128 58.834C17.128 56.734 17.394 54.886 19.396 54.886C21.384 54.886 21.65 56.734 21.65 58.834ZM25.121 61.284C25.261 62.768 26.241 64.014 28.257 64.014C30.917 64.014 31.687 62.124 31.687 58.75C31.687 55.614 30.889 53.682 28.145 53.682C25.961 53.682 24.813 55.082 24.813 57.014C24.813 59.156 26.199 60.318 28.061 60.318C29.153 60.318 30.161 59.828 30.567 58.974C30.609 61.942 29.811 62.95 28.327 62.95C27.151 62.95 26.479 62.334 26.297 61.284H25.121ZM28.271 59.24C26.759 59.24 26.031 58.288 26.031 56.986C26.031 55.642 26.857 54.746 28.173 54.746C29.629 54.746 30.413 55.712 30.413 57.084C30.413 58.442 29.489 59.24 28.271 59.24ZM34.9334 63.216C34.9334 62.726 34.5554 62.348 34.0934 62.348C33.6034 62.348 33.2254 62.726 33.2254 63.216C33.2254 63.706 33.6034 64.084 34.0934 64.084C34.5554 64.084 34.9334 63.706 34.9334 63.216ZM34.9334 57.224C34.9334 56.734 34.5554 56.356 34.0934 56.356C33.6034 56.356 33.2254 56.734 33.2254 57.224C33.2254 57.714 33.6034 58.092 34.0934 58.092C34.5554 58.092 34.9334 57.714 34.9334 57.224ZM36.4578 58.834C36.4578 61.774 37.1858 64 39.9858 64C42.7718 64 43.4998 61.774 43.4998 58.834C43.4998 55.936 42.7718 53.724 39.9858 53.724C37.1858 53.724 36.4578 55.936 36.4578 58.834ZM42.2398 58.834C42.2398 61.018 41.9738 62.838 39.9858 62.838C37.9838 62.838 37.7178 61.018 37.7178 58.834C37.7178 56.734 37.9838 54.886 39.9858 54.886C41.9738 54.886 42.2398 56.734 42.2398 58.834ZM45.2489 58.834C45.2489 61.774 45.9769 64 48.7769 64C51.5629 64 52.2909 61.774 52.2909 58.834C52.2909 55.936 51.5629 53.724 48.7769 53.724C45.9769 53.724 45.2489 55.936 45.2489 58.834ZM51.0309 58.834C51.0309 61.018 50.7649 62.838 48.7769 62.838C46.7749 62.838 46.5089 61.018 46.5089 58.834C46.5089 56.734 46.7749 54.886 48.7769 54.886C50.7649 54.886 51.0309 56.734 51.0309 58.834ZM64.5343 64H65.8783L62.3643 54.298H60.8943L57.3663 64H58.7103L59.4943 61.83H63.7503L64.5343 64ZM63.3863 60.794H59.8583L61.6223 55.866L63.3863 60.794ZM67.4159 64H68.6899V56.762L71.9239 64H72.8199L76.0399 56.776V64H77.3139V54.312H75.9559L72.3719 62.32L68.7879 54.312H67.4159V64Z" fill="#080A24"/>
<path d="M9.54 16.58C9.54 11.936 2.772 13.952 2.772 10.712C2.772 9.362 3.834 8.66 5.184 8.696C6.714 8.714 7.506 9.668 7.614 10.514H9.414C9.216 8.606 7.65 7.292 5.256 7.292C2.772 7.292 1.098 8.696 1.098 10.766C1.098 15.428 7.884 13.268 7.884 16.652C7.884 17.84 6.948 18.74 5.364 18.74C3.618 18.74 2.88 17.696 2.772 16.652H1.026C1.062 18.722 2.844 20.126 5.364 20.126C8.082 20.126 9.54 18.362 9.54 16.58ZM16.1445 11.36C17.8365 11.36 19.2765 12.422 19.2585 14.348H13.0305C13.2105 12.422 14.5425 11.36 16.1445 11.36ZM20.7525 16.958H18.9885C18.6285 18.02 17.6925 18.776 16.2165 18.776C14.5425 18.776 13.1385 17.678 13.0125 15.68H20.8965C20.9325 15.338 20.9505 15.05 20.9505 14.69C20.9505 11.99 19.0785 9.974 16.2165 9.974C13.3365 9.974 11.3385 11.936 11.3385 15.05C11.3385 18.182 13.4085 20.162 16.2165 20.162C18.6645 20.162 20.2485 18.758 20.7525 16.958ZM23.1126 20H24.7506V6.68H23.1126V20ZM31.7363 11.36C33.4283 11.36 34.8683 12.422 34.8503 14.348H28.6223C28.8022 12.422 30.1343 11.36 31.7363 11.36ZM36.3443 16.958H34.5803C34.2203 18.02 33.2843 18.776 31.8083 18.776C30.1343 18.776 28.7303 17.678 28.6043 15.68H36.4883C36.5243 15.338 36.5423 15.05 36.5423 14.69C36.5423 11.99 34.6703 9.974 31.8083 9.974C28.9283 9.974 26.9303 11.936 26.9303 15.05C26.9303 18.182 29.0003 20.162 31.8083 20.162C34.2563 20.162 35.8403 18.758 36.3443 16.958ZM38.0924 15.05C38.0924 18.182 40.0904 20.162 42.8984 20.162C45.3464 20.162 46.9484 18.794 47.4524 16.832H45.6884C45.3284 18.074 44.3564 18.776 42.8984 18.776C41.0984 18.776 39.7664 17.498 39.7664 15.05C39.7664 12.638 41.0984 11.36 42.8984 11.36C44.3564 11.36 45.3464 12.116 45.6884 13.304H47.4524C46.9484 11.234 45.3464 9.974 42.8984 9.974C40.0904 9.974 38.0924 11.954 38.0924 15.05ZM49.998 17.3C49.998 19.28 50.988 20 52.734 20H54.21V18.614H53.004C51.996 18.614 51.636 18.272 51.636 17.3V11.486H54.21V10.136H51.636V7.652H49.998V10.136H48.72V11.486H49.998V17.3ZM60.2194 8.786H63.6574V20H65.2954V8.786H68.7154V7.454H60.2194V8.786ZM70.7317 20H72.3697V10.136H70.7317V20ZM71.5777 8.534C72.1717 8.534 72.6577 8.048 72.6577 7.418C72.6577 6.788 72.1717 6.302 71.5777 6.302C70.9477 6.302 70.4617 6.788 70.4617 7.418C70.4617 8.048 70.9477 8.534 71.5777 8.534ZM89.3994 20H91.0194V14.186C91.0194 11.36 89.2734 9.956 87.0234 9.956C85.5114 9.956 84.1074 10.73 83.5314 12.152C82.8834 10.676 81.5334 9.956 79.9134 9.956C78.6174 9.956 77.4474 10.514 76.7994 11.558V10.136H75.1614V20H76.7994V14.564C76.7994 12.44 77.9334 11.378 79.5894 11.378C81.2094 11.378 82.2894 12.404 82.2894 14.42V20H83.9094V14.564C83.9094 12.44 85.0434 11.378 86.6994 11.378C88.3194 11.378 89.3994 12.404 89.3994 14.42V20ZM97.9003 11.36C99.5923 11.36 101.032 12.422 101.014 14.348H94.7863C94.9663 12.422 96.2983 11.36 97.9003 11.36ZM102.508 16.958H100.744C100.384 18.02 99.4483 18.776 97.9723 18.776C96.2983 18.776 94.8943 17.678 94.7683 15.68H102.652C102.688 15.338 102.706 15.05 102.706 14.69C102.706 11.99 100.834 9.974 97.9723 9.974C95.0923 9.974 93.0943 11.936 93.0943 15.05C93.0943 18.182 95.1643 20.162 97.9723 20.162C100.42 20.162 102.004 18.758 102.508 16.958Z" fill="#080A24"/>
<path d="M188 36H116C110.477 36 106 40.4772 106 46V70C106 75.5228 110.477 80 116 80H188C193.523 80 198 75.5228 198 70V46C198 40.4772 193.523 36 188 36Z" fill="#ED8950"/>
<path d="M124.876 64H126.164V53.878H123.532V55.04H124.876V64ZM128.352 58.834C128.352 61.774 129.08 64 131.88 64C134.666 64 135.394 61.774 135.394 58.834C135.394 55.936 134.666 53.724 131.88 53.724C129.08 53.724 128.352 55.936 128.352 58.834ZM134.134 58.834C134.134 61.018 133.868 62.838 131.88 62.838C129.878 62.838 129.612 61.018 129.612 58.834C129.612 56.734 129.878 54.886 131.88 54.886C133.868 54.886 134.134 56.734 134.134 58.834ZM138.599 63.216C138.599 62.726 138.221 62.348 137.759 62.348C137.269 62.348 136.891 62.726 136.891 63.216C136.891 63.706 137.269 64.084 137.759 64.084C138.221 64.084 138.599 63.706 138.599 63.216ZM138.599 57.224C138.599 56.734 138.221 56.356 137.759 56.356C137.269 56.356 136.891 56.734 136.891 57.224C136.891 57.714 137.269 58.092 137.759 58.092C138.221 58.092 138.599 57.714 138.599 57.224ZM140.124 58.834C140.124 61.774 140.852 64 143.652 64C146.438 64 147.166 61.774 147.166 58.834C147.166 55.936 146.438 53.724 143.652 53.724C140.852 53.724 140.124 55.936 140.124 58.834ZM145.906 58.834C145.906 61.018 145.64 62.838 143.652 62.838C141.65 62.838 141.384 61.018 141.384 58.834C141.384 56.734 141.65 54.886 143.652 54.886C145.64 54.886 145.906 56.734 145.906 58.834ZM148.915 58.834C148.915 61.774 149.643 64 152.443 64C155.229 64 155.957 61.774 155.957 58.834C155.957 55.936 155.229 53.724 152.443 53.724C149.643 53.724 148.915 55.936 148.915 58.834ZM154.697 58.834C154.697 61.018 154.431 62.838 152.443 62.838C150.441 62.838 150.175 61.018 150.175 58.834C150.175 56.734 150.441 54.886 152.443 54.886C154.431 54.886 154.697 56.734 154.697 58.834ZM168.2 64H169.544L166.03 54.298H164.56L161.032 64H162.376L163.16 61.83H167.416L168.2 64ZM167.052 60.794H163.524L165.288 55.866L167.052 60.794ZM171.082 64H172.356V56.762L175.59 64H176.486L179.706 56.776V64H180.98V54.312H179.622L176.038 62.32L172.454 54.312H171.082V64Z" fill="white"/>
<path d="M292 36H220C214.477 36 210 40.4772 210 46V70C210 75.5228 214.477 80 220 80H292C297.523 80 302 75.5228 302 70V46C302 40.4772 297.523 36 292 36Z" fill="white"/>
<path d="M230.876 64H232.164V53.878H229.532V55.04H230.876V64ZM235.36 64H236.648V53.878H234.016V55.04H235.36V64ZM240.293 63.216C240.293 62.726 239.915 62.348 239.453 62.348C238.963 62.348 238.585 62.726 238.585 63.216C238.585 63.706 238.963 64.084 239.453 64.084C239.915 64.084 240.293 63.706 240.293 63.216ZM240.293 57.224C240.293 56.734 239.915 56.356 239.453 56.356C238.963 56.356 238.585 56.734 238.585 57.224C238.585 57.714 238.963 58.092 239.453 58.092C239.915 58.092 240.293 57.714 240.293 57.224ZM241.817 58.834C241.817 61.774 242.545 64 245.345 64C248.131 64 248.859 61.774 248.859 58.834C248.859 55.936 248.131 53.724 245.345 53.724C242.545 53.724 241.817 55.936 241.817 58.834ZM247.599 58.834C247.599 61.018 247.333 62.838 245.345 62.838C243.343 62.838 243.077 61.018 243.077 58.834C243.077 56.734 243.343 54.886 245.345 54.886C247.333 54.886 247.599 56.734 247.599 58.834ZM250.608 58.834C250.608 61.774 251.336 64 254.136 64C256.922 64 257.65 61.774 257.65 58.834C257.65 55.936 256.922 53.724 254.136 53.724C251.336 53.724 250.608 55.936 250.608 58.834ZM256.39 58.834C256.39 61.018 256.124 62.838 254.136 62.838C252.134 62.838 251.868 61.018 251.868 58.834C251.868 56.734 252.134 54.886 254.136 54.886C256.124 54.886 256.39 56.734 256.39 58.834ZM269.894 64H271.238L267.724 54.298H266.254L262.726 64H264.07L264.854 61.83H269.11L269.894 64ZM268.746 60.794H265.218L266.982 55.866L268.746 60.794ZM272.775 64H274.049V56.762L277.283 64H278.179L281.399 56.776V64H282.673V54.312H281.315L277.731 62.32L274.147 54.312H272.775V64Z" fill="#080A24"/>
<path d="M82 92H10C4.47715 92 0 96.4772 0 102V126C0 131.523 4.47715 136 10 136H82C87.5229 136 92 131.523 92 126V102C92 96.4772 87.5229 92 82 92Z" fill="white"/>
<path d="M16.876 120H18.164V109.878H15.532V111.04H16.876V120ZM20.1984 119.888H26.9324V118.824H22.1164C23.9224 117.354 26.6384 115.212 26.6384 112.692C26.6384 110.816 25.4064 109.696 23.5024 109.696C21.6824 109.696 20.3244 110.816 20.2404 112.972H21.4724C21.5284 111.698 22.2004 110.788 23.5164 110.788C24.8884 110.788 25.3784 111.628 25.3784 112.748C25.3784 114.82 22.8584 116.836 20.1984 118.978V119.888ZM29.8611 119.216C29.8611 118.726 29.4831 118.348 29.0211 118.348C28.5311 118.348 28.1531 118.726 28.1531 119.216C28.1531 119.706 28.5311 120.084 29.0211 120.084C29.4831 120.084 29.8611 119.706 29.8611 119.216ZM29.8611 113.224C29.8611 112.734 29.4831 112.356 29.0211 112.356C28.5311 112.356 28.1531 112.734 28.1531 113.224C28.1531 113.714 28.5311 114.092 29.0211 114.092C29.4831 114.092 29.8611 113.714 29.8611 113.224ZM31.3856 114.834C31.3856 117.774 32.1136 120 34.9136 120C37.6996 120 38.4276 117.774 38.4276 114.834C38.4276 111.936 37.6996 109.724 34.9136 109.724C32.1136 109.724 31.3856 111.936 31.3856 114.834ZM37.1676 114.834C37.1676 117.018 36.9016 118.838 34.9136 118.838C32.9116 118.838 32.6456 117.018 32.6456 114.834C32.6456 112.734 32.9116 110.886 34.9136 110.886C36.9016 110.886 37.1676 112.734 37.1676 114.834ZM40.1766 114.834C40.1766 117.774 40.9046 120 43.7046 120C46.4906 120 47.2186 117.774 47.2186 114.834C47.2186 111.936 46.4906 109.724 43.7046 109.724C40.9046 109.724 40.1766 111.936 40.1766 114.834ZM45.9586 114.834C45.9586 117.018 45.6926 118.838 43.7046 118.838C41.7026 118.838 41.4366 117.018 41.4366 114.834C41.4366 112.734 41.7026 110.886 43.7046 110.886C45.6926 110.886 45.9586 112.734 45.9586 114.834ZM59.462 120H60.806L57.292 110.298H55.822L52.294 120H53.638L54.422 117.83H58.678L59.462 120ZM58.314 116.794H54.786L56.55 111.866L58.314 116.794ZM62.3436 120H63.6176V112.762L66.8516 120H67.7476L70.9676 112.776V120H72.2416V110.312H70.8836L67.2996 118.32L63.7156 110.312H62.3436V120Z" fill="#080A24"/>
<path d="M188 92H116C110.477 92 106 96.4772 106 102V126C106 131.523 110.477 136 116 136H188C193.523 136 198 131.523 198 126V102C198 96.4772 193.523 92 188 92Z" fill="white"/>
<path d="M123.868 114.834C123.868 117.774 124.596 120 127.396 120C130.182 120 130.91 117.774 130.91 114.834C130.91 111.936 130.182 109.724 127.396 109.724C124.596 109.724 123.868 111.936 123.868 114.834ZM129.65 114.834C129.65 117.018 129.384 118.838 127.396 118.838C125.394 118.838 125.128 117.018 125.128 114.834C125.128 112.734 125.394 110.886 127.396 110.886C129.384 110.886 129.65 112.734 129.65 114.834ZM133.667 120H134.955V109.878H132.323V111.04H133.667V120ZM138.599 119.216C138.599 118.726 138.221 118.348 137.759 118.348C137.269 118.348 136.891 118.726 136.891 119.216C136.891 119.706 137.269 120.084 137.759 120.084C138.221 120.084 138.599 119.706 138.599 119.216ZM138.599 113.224C138.599 112.734 138.221 112.356 137.759 112.356C137.269 112.356 136.891 112.734 136.891 113.224C136.891 113.714 137.269 114.092 137.759 114.092C138.221 114.092 138.599 113.714 138.599 113.224ZM140.124 114.834C140.124 117.774 140.852 120 143.652 120C146.438 120 147.166 117.774 147.166 114.834C147.166 111.936 146.438 109.724 143.652 109.724C140.852 109.724 140.124 111.936 140.124 114.834ZM145.906 114.834C145.906 117.018 145.64 118.838 143.652 118.838C141.65 118.838 141.384 117.018 141.384 114.834C141.384 112.734 141.65 110.886 143.652 110.886C145.64 110.886 145.906 112.734 145.906 114.834ZM148.915 114.834C148.915 117.774 149.643 120 152.443 120C155.229 120 155.957 117.774 155.957 114.834C155.957 111.936 155.229 109.724 152.443 109.724C149.643 109.724 148.915 111.936 148.915 114.834ZM154.697 114.834C154.697 117.018 154.431 118.838 152.443 118.838C150.441 118.838 150.175 117.018 150.175 114.834C150.175 112.734 150.441 110.886 152.443 110.886C154.431 110.886 154.697 112.734 154.697 114.834ZM162.922 114.876V111.292H164.798C166.254 111.292 166.87 111.964 166.87 113.098C166.87 114.19 166.254 114.876 164.798 114.876H162.922ZM168.172 113.098C168.172 111.502 167.094 110.242 164.798 110.242H161.648V120H162.922V115.926H164.798C167.22 115.926 168.172 114.582 168.172 113.098ZM169.756 120H171.03V112.762L174.264 120H175.16L178.38 112.776V120H179.654V110.312H178.296L174.712 118.32L171.128 110.312H169.756V120Z" fill="#080A24"/>
<path d="M292 92H220C214.477 92 210 96.4772 210 102V126C210 131.523 214.477 136 220 136H292C297.523 136 302 131.523 302 126V102C302 96.4772 297.523 92 292 92Z" fill="white"/>
<path d="M227.868 114.834C227.868 117.774 228.596 120 231.396 120C234.182 120 234.91 117.774 234.91 114.834C234.91 111.936 234.182 109.724 231.396 109.724C228.596 109.724 227.868 111.936 227.868 114.834ZM233.65 114.834C233.65 117.018 233.384 118.838 231.396 118.838C229.394 118.838 229.128 117.018 229.128 114.834C229.128 112.734 229.394 110.886 231.396 110.886C233.384 110.886 233.65 112.734 233.65 114.834ZM236.505 119.888H243.239V118.824H238.423C240.229 117.354 242.945 115.212 242.945 112.692C242.945 110.816 241.713 109.696 239.809 109.696C237.989 109.696 236.631 110.816 236.547 112.972H237.779C237.835 111.698 238.507 110.788 239.823 110.788C241.195 110.788 241.685 111.628 241.685 112.748C241.685 114.82 239.165 116.836 236.505 118.978V119.888ZM246.168 119.216C246.168 118.726 245.79 118.348 245.328 118.348C244.838 118.348 244.46 118.726 244.46 119.216C244.46 119.706 244.838 120.084 245.328 120.084C245.79 120.084 246.168 119.706 246.168 119.216ZM246.168 113.224C246.168 112.734 245.79 112.356 245.328 112.356C244.838 112.356 244.46 112.734 244.46 113.224C244.46 113.714 244.838 114.092 245.328 114.092C245.79 114.092 246.168 113.714 246.168 113.224ZM247.692 114.834C247.692 117.774 248.42 120 251.22 120C254.006 120 254.734 117.774 254.734 114.834C254.734 111.936 254.006 109.724 251.22 109.724C248.42 109.724 247.692 111.936 247.692 114.834ZM253.474 114.834C253.474 117.018 253.208 118.838 251.22 118.838C249.218 118.838 248.952 117.018 248.952 114.834C248.952 112.734 249.218 110.886 251.22 110.886C253.208 110.886 253.474 112.734 253.474 114.834ZM256.483 114.834C256.483 117.774 257.211 120 260.011 120C262.797 120 263.525 117.774 263.525 114.834C263.525 111.936 262.797 109.724 260.011 109.724C257.211 109.724 256.483 111.936 256.483 114.834ZM262.265 114.834C262.265 117.018 261.999 118.838 260.011 118.838C258.009 118.838 257.743 117.018 257.743 114.834C257.743 112.734 258.009 110.886 260.011 110.886C261.999 110.886 262.265 112.734 262.265 114.834ZM270.491 114.876V111.292H272.367C273.823 111.292 274.439 111.964 274.439 113.098C274.439 114.19 273.823 114.876 272.367 114.876H270.491ZM275.741 113.098C275.741 111.502 274.663 110.242 272.367 110.242H269.217V120H270.491V115.926H272.367C274.789 115.926 275.741 114.582 275.741 113.098ZM277.324 120H278.598V112.762L281.832 120H282.728L285.948 112.776V120H287.222V110.312H285.864L282.28 118.32L278.696 110.312H277.324V120Z" fill="#080A24"/>
</svg>
