<svg width="302" height="250" viewBox="0 0 302 250" fill="none" xmlns="http://www.w3.org/2000/svg">
<path d="M286 32H16C7.16344 32 0 39.1634 0 48V234C0 242.837 7.16344 250 16 250H286C294.837 250 302 242.837 302 234V48C302 39.1634 294.837 32 286 32Z" fill="white"/>
<path d="M18.052 64.014L19.466 64L21.818 56.146L24.086 64H25.514L28.342 54.242H26.97L24.828 62.488L22.588 54.242H21.16L18.808 62.516L16.68 54.242H15.322L18.052 64.014ZM31.0102 59.828C31.0102 58.05 31.9342 57.504 33.1522 57.504H33.4882V56.188C32.2702 56.188 31.4442 56.72 31.0102 57.574V56.328H29.7362V64H31.0102V59.828ZM34.9589 64H36.2329V56.328H34.9589V64ZM35.6169 55.082C36.0789 55.082 36.4569 54.704 36.4569 54.214C36.4569 53.724 36.0789 53.346 35.6169 53.346C35.1269 53.346 34.7489 53.724 34.7489 54.214C34.7489 54.704 35.1269 55.082 35.6169 55.082ZM38.6842 61.9C38.6842 63.44 39.4542 64 40.8122 64H41.9602V62.922H41.0222C40.2382 62.922 39.9582 62.656 39.9582 61.9V57.378H41.9602V56.328H39.9582V54.396H38.6842V56.328H37.6902V57.378H38.6842V61.9ZM46.7658 57.28C48.0818 57.28 49.2018 58.106 49.1878 59.604H44.3438C44.4838 58.106 45.5198 57.28 46.7658 57.28ZM50.3498 61.634H48.9778C48.6978 62.46 47.9698 63.048 46.8218 63.048C45.5198 63.048 44.4278 62.194 44.3298 60.64H50.4618C50.4898 60.374 50.5038 60.15 50.5038 59.87C50.5038 57.77 49.0478 56.202 46.8218 56.202C44.5818 56.202 43.0278 57.728 43.0278 60.15C43.0278 62.586 44.6378 64.126 46.8218 64.126C48.7258 64.126 49.9578 63.034 50.3498 61.634ZM58.8298 62.544L56.4218 56.328H55.0078L58.1018 63.916L56.5898 67.612H57.9058L62.5258 56.328H61.2098L58.8298 62.544ZM71.0865 60.15C71.0865 57.728 69.3925 56.202 67.2085 56.202C65.0385 56.202 63.3305 57.728 63.3305 60.15C63.3305 62.586 64.9825 64.126 67.1525 64.126C69.3365 64.126 71.0865 62.586 71.0865 60.15ZM64.6325 60.15C64.6325 58.218 65.8505 57.308 67.1945 57.308C68.5105 57.308 69.7845 58.218 69.7845 60.15C69.7845 62.096 68.4825 63.006 67.1525 63.006C65.8225 63.006 64.6325 62.096 64.6325 60.15ZM79.5656 56.328H78.2916V60.542C78.2916 62.194 77.4096 63.006 76.0936 63.006C74.8056 63.006 73.9516 62.208 73.9516 60.654V56.328H72.6916V60.822C72.6916 63.02 74.0776 64.112 75.8416 64.112C76.8636 64.112 77.8016 63.664 78.2916 62.866V64H79.5656V56.328ZM82.9907 59.828C82.9907 58.05 83.9147 57.504 85.1327 57.504H85.4687V56.188C84.2507 56.188 83.4247 56.72 82.9907 57.574V56.328H81.7167V64H82.9907V59.828ZM97.9518 60.15C97.9518 57.728 96.2578 56.202 94.0738 56.202C91.9038 56.202 90.1958 57.728 90.1958 60.15C90.1958 62.586 91.8478 64.126 94.0178 64.126C96.2018 64.126 97.9518 62.586 97.9518 60.15ZM91.4978 60.15C91.4978 58.218 92.7158 57.308 94.0598 57.308C95.3758 57.308 96.6498 58.218 96.6498 60.15C96.6498 62.096 95.3478 63.006 94.0178 63.006C92.6878 63.006 91.4978 62.096 91.4978 60.15ZM100.901 57.742V56.328H99.6268V67.64H100.901V62.586C101.377 63.37 102.371 64.126 103.771 64.126C105.829 64.126 107.411 62.516 107.411 60.136C107.411 57.742 105.829 56.202 103.771 56.202C102.371 56.202 101.363 56.93 100.901 57.742ZM106.109 60.136C106.109 61.942 104.919 63.006 103.505 63.006C102.119 63.006 100.901 61.956 100.901 60.15C100.901 58.372 102.119 57.308 103.505 57.308C104.919 57.308 106.109 58.33 106.109 60.136ZM109.368 61.9C109.368 63.44 110.138 64 111.496 64H112.644V62.922H111.706C110.922 62.922 110.642 62.656 110.642 61.9V57.378H112.644V56.328H110.642V54.396H109.368V56.328H108.374V57.378H109.368V61.9ZM114.187 64H115.461V56.328H114.187V64ZM114.845 55.082C115.307 55.082 115.685 54.704 115.685 54.214C115.685 53.724 115.307 53.346 114.845 53.346C114.355 53.346 113.977 53.724 113.977 54.214C113.977 54.704 114.355 55.082 114.845 55.082ZM124.913 60.15C124.913 57.728 123.219 56.202 121.035 56.202C118.865 56.202 117.157 57.728 117.157 60.15C117.157 62.586 118.809 64.126 120.979 64.126C123.163 64.126 124.913 62.586 124.913 60.15ZM118.459 60.15C118.459 58.218 119.677 57.308 121.021 57.308C122.337 57.308 123.611 58.218 123.611 60.15C123.611 62.096 122.309 63.006 120.979 63.006C119.649 63.006 118.459 62.096 118.459 60.15ZM132.202 64H133.462V59.478C133.462 57.28 132.104 56.188 130.326 56.188C129.29 56.188 128.366 56.622 127.862 57.42V56.328H126.588V64H127.862V59.758C127.862 58.106 128.758 57.294 130.06 57.294C131.348 57.294 132.202 58.092 132.202 59.66V64ZM135.067 60.136C135.067 62.516 136.649 64.126 138.693 64.126C140.107 64.126 141.101 63.398 141.563 62.572V64H142.851V56.328H141.563V57.728C141.115 56.93 140.135 56.202 138.707 56.202C136.649 56.202 135.067 57.742 135.067 60.136ZM141.563 60.15C141.563 61.956 140.359 63.006 138.959 63.006C137.559 63.006 136.369 61.942 136.369 60.136C136.369 58.33 137.559 57.308 138.959 57.308C140.359 57.308 141.563 58.372 141.563 60.15ZM145.004 64H146.278V53.64H145.004V64Z" fill="#656565"/>
<path d="M4.446 15.266V20H6.084V15.266L10.17 7.454H8.352L5.256 13.808L2.16 7.454H0.342L4.446 15.266ZM21.2577 15.05C21.2577 11.936 19.0797 9.974 16.2717 9.974C13.4817 9.974 11.2857 11.936 11.2857 15.05C11.2857 18.182 13.4097 20.162 16.1997 20.162C19.0077 20.162 21.2577 18.182 21.2577 15.05ZM12.9597 15.05C12.9597 12.566 14.5257 11.396 16.2537 11.396C17.9457 11.396 19.5837 12.566 19.5837 15.05C19.5837 17.552 17.9097 18.722 16.1997 18.722C14.4897 18.722 12.9597 17.552 12.9597 15.05ZM32.1594 10.136H30.5214V15.554C30.5214 17.678 29.3874 18.722 27.6954 18.722C26.0394 18.722 24.9414 17.696 24.9414 15.698V10.136H23.3214V15.914C23.3214 18.74 25.1034 20.144 27.3714 20.144C28.6854 20.144 29.8914 19.568 30.5214 18.542V20H32.1594V10.136ZM36.5631 14.636C36.5631 12.35 37.7511 11.648 39.3171 11.648H39.7491V9.956C38.1831 9.956 37.1211 10.64 36.5631 11.738V10.136H34.9251V20H36.5631V14.636ZM53.1527 11.144C53.1527 12.548 52.3427 13.556 50.4887 13.556H48.0767V8.804H50.4887C52.3607 8.804 53.1527 9.722 53.1527 11.144ZM46.4387 7.454V20H48.0767V14.87H50.0567L53.0447 20H55.0067L51.8567 14.744C53.9627 14.276 54.8447 12.746 54.8447 11.144C54.8447 9.092 53.4407 7.454 50.4887 7.454H46.4387ZM61.5839 11.36C63.2759 11.36 64.7159 12.422 64.6979 14.348H58.4699C58.6499 12.422 59.9819 11.36 61.5839 11.36ZM66.1919 16.958H64.4279C64.0679 18.02 63.1319 18.776 61.6559 18.776C59.9819 18.776 58.5779 17.678 58.4519 15.68H66.3359C66.3719 15.338 66.3899 15.05 66.3899 14.69C66.3899 11.99 64.5179 9.974 61.6559 9.974C58.7759 9.974 56.7779 11.936 56.7779 15.05C56.7779 18.182 58.8479 20.162 61.6559 20.162C64.1039 20.162 65.6879 18.758 66.1919 16.958ZM67.94 15.032C67.94 18.092 69.974 20.162 72.584 20.162C74.42 20.162 75.734 19.19 76.292 18.182V24.68H77.948V10.136H76.292V11.936C75.734 10.91 74.438 9.974 72.638 9.974C69.974 9.974 67.94 11.954 67.94 15.032ZM76.292 15.05C76.292 17.372 74.744 18.722 72.944 18.722C71.144 18.722 69.614 17.354 69.614 15.032C69.614 12.71 71.144 11.396 72.944 11.396C74.744 11.396 76.292 12.764 76.292 15.05ZM89.4641 10.136H87.8261V15.554C87.8261 17.678 86.6921 18.722 85.0001 18.722C83.3441 18.722 82.2461 17.696 82.2461 15.698V10.136H80.6261V15.914C80.6261 18.74 82.4081 20.144 84.6761 20.144C85.9901 20.144 87.1961 19.568 87.8261 18.542V20H89.4641V10.136ZM96.4238 11.36C98.1158 11.36 99.5558 12.422 99.5378 14.348H93.3098C93.4897 12.422 94.8218 11.36 96.4238 11.36ZM101.032 16.958H99.2678C98.9078 18.02 97.9718 18.776 96.4958 18.776C94.8218 18.776 93.4178 17.678 93.2918 15.68H101.176C101.212 15.338 101.23 15.05 101.23 14.69C101.23 11.99 99.3578 9.974 96.4958 9.974C93.6158 9.974 91.6178 11.936 91.6178 15.05C91.6178 18.182 93.6878 20.162 96.4958 20.162C98.9438 20.162 100.528 18.758 101.032 16.958ZM110.484 17.318C110.412 13.79 104.688 15.068 104.688 12.728C104.688 11.936 105.408 11.36 106.614 11.36C107.928 11.36 108.684 12.08 108.756 13.07H110.394C110.286 11.144 108.846 9.974 106.668 9.974C104.472 9.974 103.05 11.216 103.05 12.728C103.05 16.4 108.882 15.122 108.882 17.318C108.882 18.128 108.162 18.776 106.866 18.776C105.48 18.776 104.634 18.056 104.544 17.102H102.852C102.96 18.902 104.58 20.162 106.884 20.162C109.062 20.162 110.484 18.938 110.484 17.318ZM113.156 17.3C113.156 19.28 114.146 20 115.892 20H117.368V18.614H116.162C115.154 18.614 114.794 18.272 114.794 17.3V11.486H117.368V10.136H114.794V7.652H113.156V10.136H111.878V11.486H113.156V17.3Z" fill="#080A24"/>
</svg>
