<svg width="23" height="22" viewBox="0 0 23 22" fill="none" xmlns="http://www.w3.org/2000/svg">
<path d="M8.625 0C6.79458 0 5.31204 1.27142 4.94117 2.92233C2.70633 3.30367 0.958333 5.0875 0.958333 7.33333C0.958333 7.55883 0.984209 7.75958 1.01871 7.964C0.400584 8.833 0 9.85692 0 11C0 12.6473 0.857708 14.0333 2.06617 15.0388C1.97992 15.3652 1.91667 15.6906 1.91667 16.0417C1.91667 18.3086 3.85921 20.1667 6.22917 20.1667H6.28954C6.84729 21.2016 7.81329 22 9.10417 22C9.55133 21.999 9.99376 21.9123 10.4053 21.7449C10.8168 21.5776 11.189 21.333 11.5 21.0256C11.811 21.333 12.1832 21.5776 12.5947 21.7449C13.0062 21.9123 13.4487 21.999 13.8958 22C15.1877 22 16.1527 21.2016 16.7114 20.1667H16.7708C19.021 20.1667 20.8658 18.491 21.0536 16.3854H21.0833C21.0833 16.3277 21.0575 16.2708 21.0536 16.2131C21.0575 16.1562 21.0833 16.0985 21.0833 16.0417C21.0833 15.7016 20.9559 15.411 20.8735 15.0966C22.1164 14.0864 23 12.6766 23 11C23 9.85783 22.5994 8.83392 21.9813 7.96308C22.0158 7.75958 22.0417 7.55975 22.0417 7.33333C22.0417 5.0875 20.2937 3.30458 18.0588 2.92142C17.688 1.27233 16.2054 0 14.375 0C13.225 0 12.2034 0.512417 11.5 1.28883C10.7966 0.513333 9.775 0 8.625 0ZM8.625 1.83333C9.69546 1.83333 10.5417 2.64275 10.5417 3.66667V5.5C10.5417 7.029 9.26517 8.25 7.66667 8.25V10.0833C8.75246 10.0833 9.73667 9.72583 10.5417 9.13825V18.7917C10.5417 19.5617 9.90917 20.1667 9.10417 20.1667C8.76887 20.1712 8.4429 20.0611 8.18485 19.8563C7.9268 19.6514 7.7536 19.3653 7.69637 19.0492L7.51717 18.1619L6.58854 18.3049C6.24733 18.3565 5.89847 18.3365 5.56615 18.2463C5.23382 18.1561 4.92596 17.9979 4.66389 17.7826C4.40182 17.5673 4.19181 17.3001 4.0484 16.9995C3.90498 16.6989 3.8316 16.3721 3.83333 16.0417C3.83333 15.7584 3.88125 15.4935 3.98283 15.2396C3.9905 15.2185 4.00583 15.2029 4.01254 15.1818C4.30963 14.4769 4.95267 13.9608 5.75 13.8068L5.36092 12.0028C4.38283 12.1876 3.50329 12.6942 2.875 13.4347C2.2519 12.7643 1.91049 11.897 1.91667 11C1.91503 10.1757 2.21126 9.37613 2.75521 8.73675L3.05517 8.393L2.96508 7.93467C2.91078 7.73824 2.88055 7.53644 2.875 7.33333C2.875 5.80433 4.1515 4.58333 5.75 4.58333H6.70833V3.66667C6.70833 2.64275 7.55454 1.83333 8.625 1.83333ZM14.375 1.83333C15.4455 1.83333 16.2917 2.64275 16.2917 3.66667V4.58333H17.25C18.8485 4.58333 20.125 5.80433 20.125 7.33333C20.125 7.53042 20.0867 7.72017 20.0349 7.93467L19.9458 8.393L20.2448 8.73675C20.7887 9.37613 21.085 10.1757 21.0833 11C21.0833 12.1 20.5927 13.0808 19.7953 13.75C19.1408 13.1954 18.3061 12.8333 17.3698 12.8333C16.4642 12.8333 15.6477 13.1413 15.0037 13.6638L16.2323 15.0682C16.5484 14.8075 16.9524 14.6649 17.3698 14.6667C18.2946 14.6667 19.0315 15.3294 19.137 16.1847C19.0584 17.3919 18.0512 18.3333 16.7708 18.3333C16.6846 18.3333 16.5792 18.3297 16.4115 18.3049L15.4828 18.161L15.3036 19.0502C15.2462 19.366 15.0729 19.652 14.8149 19.8566C14.5568 20.0613 14.231 20.1712 13.8958 20.1667C13.0908 20.1667 12.4583 19.5617 12.4583 18.7917V9.13825C13.2811 9.74857 14.2921 10.0809 15.3333 10.0833V8.25C13.7348 8.25 12.4583 7.029 12.4583 5.5V3.66667C12.4583 2.64275 13.3045 1.83333 14.375 1.83333Z" fill="#FECDCF"/>
</svg>
