<svg width="25" height="25" viewBox="0 0 25 25" fill="none" xmlns="http://www.w3.org/2000/svg">
<path d="M18.008 8.4H6.02901C5.71075 8.4 5.40553 8.52643 5.18048 8.75147C4.95544 8.97651 4.82901 9.28174 4.82901 9.6C4.82901 9.91826 4.95544 10.2235 5.18048 10.4485C5.40553 10.6736 5.71075 10.8 6.02901 10.8H18.008C18.3263 10.8 18.6315 10.6736 18.8565 10.4485C19.0816 10.2235 19.208 9.91826 19.208 9.6C19.208 9.28174 19.0816 8.97651 18.8565 8.75147C18.6315 8.52643 18.3263 8.4 18.008 8.4ZM13.215 13.2H6.02901C5.71075 13.2 5.40553 13.3264 5.18048 13.5515C4.95544 13.7765 4.82901 14.0817 4.82901 14.4C4.82901 14.7183 4.95544 15.0235 5.18048 15.2485C5.40553 15.4736 5.71075 15.6 6.02901 15.6H13.219C13.5373 15.6 13.8425 15.4736 14.0675 15.2485C14.2926 15.0235 14.419 14.7183 14.419 14.4C14.419 14.0817 14.2926 13.7765 14.0675 13.5515C13.8425 13.3264 13.5373 13.2 13.219 13.2H13.215ZM12.017 0C9.74635 0.00237361 7.52295 0.648938 5.60511 1.86459C3.68726 3.08024 2.15369 4.81507 1.18252 6.86757C0.211349 8.92007 -0.157547 11.206 0.118681 13.4598C0.394908 15.7136 1.30492 17.8428 2.74301 19.6L0.346013 22C0.177557 22.1667 0.063717 22.3807 0.0195642 22.6136C-0.0245885 22.8465 0.00302856 23.0873 0.0987592 23.3041C0.19449 23.5209 0.353819 23.7036 0.555652 23.8278C0.757484 23.9521 0.992301 24.0121 1.22901 24H12.017C15.1996 24 18.2519 22.7357 20.5023 20.4853C22.7527 18.2348 24.017 15.1826 24.017 12C24.017 8.8174 22.7527 5.76515 20.5023 3.51472C18.2519 1.26428 15.1996 4.74244e-08 12.017 0ZM12.017 21.6H4.11701L5.23101 20.484C5.45451 20.2592 5.57996 19.955 5.57996 19.638C5.57996 19.321 5.45451 19.0168 5.23101 18.792C3.66441 17.2246 2.68961 15.1625 2.47263 12.9571C2.25565 10.7516 2.80992 8.53914 4.04104 6.69646C5.27215 4.85378 7.10397 3.49485 9.22452 2.85112C11.3451 2.20739 13.6232 2.31867 15.6709 3.166C17.7186 4.01333 19.4093 5.54431 20.455 7.4982C21.5006 9.45209 21.8366 11.7081 21.4058 13.8819C20.9749 16.0557 19.8037 18.0129 18.0918 19.4202C16.3799 20.8275 14.2331 21.5978 12.017 21.6Z" fill="white"/>
</svg>
