<svg width="20" height="20" viewBox="0 0 20 20" fill="none" xmlns="http://www.w3.org/2000/svg">
<path d="M5 0C2 0 0 3 0 6C0 8.11 1 11 2 12C3 13 4 20 6 20C10.54 20 8 13 10 13C12 13 9.46 20 14 20C16 20 17 13 18 12C19 11 20 8.11 20 6C20 3 18 0 15 0C12 0 12 1 10 1C8 1 8 0 5 0ZM5 2C7 2 8 3 10 3C12 3 13 2 15 2C16.67 2 18 4 18 6C18 7.75 17.14 10.11 16.19 11.06C15.33 11.92 14.06 17.94 13.5 17.94C13.29 17.94 13 16.88 13 15.59C13 13.55 12.43 11 10 11C7.57 11 7 13.55 7 15.59C7 16.88 6.71 17.94 6.5 17.94C5.94 17.94 4.67 11.92 3.81 11.06C2.86 10.11 2 7.75 2 6C2 4 3.33 2 5 2Z" fill="#B0E3FF"/>
</svg>
