<svg width="24" height="17" viewBox="0 0 24 17" fill="none" xmlns="http://www.w3.org/2000/svg">
    <path
        d="M12 3.54167C12.4416 3.549 12.88 3.62354 13.3017 3.76302C13.1066 4.12751 13.0027 4.53905 13 4.95833C13 5.2839 13.0604 5.60628 13.1776 5.90707C13.2949 6.20786 13.4668 6.48116 13.6834 6.71137C13.9001 6.94158 14.1573 7.1242 14.4404 7.24878C14.7235 7.37337 15.0269 7.4375 15.3333 7.4375C15.728 7.43459 16.1153 7.32424 16.4583 7.11698C16.729 8.11431 16.6975 9.17684 16.3682 10.1541C16.0389 11.1313 15.4286 11.9737 14.6237 12.5619C13.8188 13.1501 12.8601 13.4543 11.8834 13.4314C10.9068 13.4086 9.96162 13.0598 9.18188 12.4345C8.40214 11.8092 7.82734 10.9391 7.53889 9.94738C7.25044 8.9557 7.26297 7.89272 7.5747 6.90902C7.88643 5.92533 8.48157 5.07078 9.2758 4.46642C10.07 3.86206 11.0231 3.53853 12 3.54167ZM0.144976 7.85365C2.40456 3.16935 6.87791 0 12 0C17.1221 0 21.5967 3.17156 23.855 7.85409C23.9503 8.05442 24 8.27575 24 8.50022C24 8.72469 23.9503 8.94602 23.855 9.14635C21.5954 13.8307 17.1221 17 12 17C6.87791 17 2.40331 13.8284 0.144976 9.14591C0.0496597 8.94558 0 8.72425 0 8.49978C0 8.2753 0.0496597 8.05398 0.144976 7.85365ZM12 14.875C16.1104 14.875 19.8788 12.4401 21.9138 8.5C19.8788 4.5599 16.1108 2.125 12 2.125C7.88916 2.125 4.12123 4.5599 2.08623 8.5C4.12082 12.4401 7.88916 14.875 12 14.875Z"
        fill="#FED89C" />
</svg>
