<svg width="28" height="24" viewBox="0 0 28 24" fill="none" xmlns="http://www.w3.org/2000/svg">
<path d="M27.26 8.113C27.2622 9.17033 27.0547 10.2176 26.6496 11.1943C26.2445 12.1709 25.6499 13.0576 24.9 13.803L16.49 22.213C15.9163 22.7831 15.2587 23.262 14.54 23.633H14.29C14.207 23.6428 14.123 23.6428 14.04 23.633C13.957 23.6428 13.873 23.6428 13.79 23.633H13.54C12.8036 23.2664 12.1289 22.7873 11.54 22.213L6.29 16.993C6.1017 16.8047 5.99591 16.5493 5.99591 16.283C5.99591 16.0167 6.1017 15.7613 6.29 15.573C6.4783 15.3847 6.7337 15.2789 7 15.2789C7.2663 15.2789 7.5217 15.3847 7.71 15.573L12.93 20.793C13.2497 21.1143 13.6093 21.3932 14 21.623C14.3907 21.3932 14.7503 21.1143 15.07 20.793L23.48 12.383C24.0496 11.8234 24.5027 11.1565 24.8131 10.4209C25.1236 9.68525 25.2853 8.89539 25.2888 8.09692C25.2923 7.29845 25.1377 6.50719 24.8337 5.76882C24.5298 5.03045 24.0826 4.35959 23.518 3.79498C22.9534 3.23037 22.2826 2.7832 21.5442 2.47927C20.8058 2.17534 20.0146 2.02067 19.2161 2.02421C18.4176 2.02774 17.6278 2.18941 16.8921 2.49986C16.1565 2.81032 15.4896 3.26342 14.93 3.833L14.71 4.053C14.5807 4.17982 14.4193 4.26913 14.2432 4.3114C14.0671 4.35367 13.8828 4.34731 13.71 4.293H13.57L13.43 4.19301C13.3631 4.15894 13.2995 4.11876 13.24 4.073L13.02 3.853C12.1844 3.03388 11.1292 2.47465 9.9822 2.24306C8.83522 2.01148 7.64569 2.11748 6.55773 2.54822C5.46977 2.97896 4.53006 3.71595 3.85246 4.66992C3.17485 5.62388 2.78843 6.75388 2.74 7.923C2.74 8.18822 2.63464 8.44258 2.44711 8.63011C2.25957 8.81765 2.00522 8.92301 1.74 8.92301C1.47478 8.92301 1.22043 8.81765 1.03289 8.63011C0.845357 8.44258 0.74 8.18822 0.74 7.923C0.754781 6.39359 1.20767 4.90047 2.04502 3.62056C2.88236 2.34065 4.06906 1.3276 5.46449 0.701445C6.85993 0.0752882 8.40561 -0.137728 9.9184 0.0876362C11.4312 0.313 12.8477 0.967299 14 1.973C15.1645 0.956537 16.5985 0.299191 18.1287 0.0804521C19.6589 -0.138287 21.2196 0.0909487 22.6223 0.740441C24.0249 1.38993 25.2094 2.43186 26.0324 3.74025C26.8555 5.04863 27.2818 6.56744 27.26 8.113ZM6.65 13.533L8.75 8.92301L10.4 15.193C10.4531 15.3999 10.5711 15.5843 10.7367 15.7193C10.9022 15.8542 11.1067 15.9326 11.32 15.943C11.5226 15.9416 11.72 15.8787 11.8861 15.7627C12.0522 15.6466 12.1791 15.4828 12.25 15.293L14.2 10.123L15.12 11.493C15.2175 11.6341 15.3496 11.7478 15.5038 11.8231C15.6579 11.8984 15.8288 11.9328 16 11.923H19C19.2652 11.923 19.5196 11.8176 19.7071 11.6301C19.8946 11.4426 20 11.1882 20 10.923C20 10.6578 19.8946 10.4034 19.7071 10.2159C19.5196 10.0284 19.2652 9.92301 19 9.92301H16.54L14.83 7.373C14.7283 7.21932 14.5861 7.09673 14.4191 7.01876C14.2522 6.9408 14.0669 6.91049 13.8838 6.93118C13.7007 6.95187 13.5268 7.02276 13.3815 7.13602C13.2361 7.24928 13.1248 7.40051 13.06 7.573L11.54 11.633L10 5.673C9.94384 5.47076 9.82707 5.29057 9.66539 5.15671C9.50371 5.02285 9.3049 4.94174 9.09572 4.92431C8.88655 4.90688 8.67706 4.95396 8.49545 5.05922C8.31385 5.16447 8.16886 5.32284 8.08 5.513L5.86 10.423C5.77274 10.2719 5.64746 10.1462 5.49658 10.0585C5.34571 9.97076 5.17451 9.92406 5 9.92301H1C0.734784 9.92301 0.48043 10.0284 0.292893 10.2159C0.105357 10.4034 0 10.6578 0 10.923C0 11.1882 0.105357 11.4426 0.292893 11.6301C0.48043 11.8176 0.734784 11.923 1 11.923H4.28L4.79 13.443C4.85421 13.6335 4.97438 13.8003 5.1348 13.9215C5.29523 14.0427 5.48847 14.1128 5.6893 14.1225C5.89013 14.1322 6.08923 14.0811 6.26061 13.976C6.43199 13.8708 6.56769 13.7165 6.65 13.533Z" fill="#585EE5"/>
</svg>
