<svg width="18" height="18" viewBox="0 0 18 18" fill="none" xmlns="http://www.w3.org/2000/svg">
<path d="M8.99905 0.807999C7.37902 0.807999 5.79538 1.28839 4.44837 2.18843C3.10137 3.08847 2.05151 4.36773 1.43155 5.86444C0.811593 7.36115 0.649384 9.00809 0.965436 10.597C1.28149 12.1859 2.0616 13.6454 3.20714 14.7909C4.35267 15.9364 5.81216 16.7166 7.40106 17.0326C8.98996 17.3487 10.6369 17.1865 12.1336 16.5665C13.6303 15.9465 14.9096 14.8967 15.8096 13.5497C16.7097 12.2027 17.19 10.619 17.19 8.999C17.19 6.82661 16.3271 4.7432 14.791 3.20709C13.2548 1.67098 11.1714 0.807999 8.99905 0.807999ZM8.99905 15.552C7.70299 15.552 6.43603 15.1677 5.3584 14.4476C4.28076 13.7276 3.44085 12.7041 2.94487 11.5067C2.44888 10.3093 2.31911 8.99173 2.57196 7.72057C2.82481 6.44941 3.44892 5.28178 4.36538 4.36533C5.28183 3.44887 6.44946 2.82476 7.72062 2.57191C8.99178 2.31906 10.3094 2.44884 11.5068 2.94482C12.7042 3.4408 13.7276 4.28071 14.4477 5.35835C15.1677 6.43598 15.552 7.70294 15.552 8.999C15.552 10.737 14.8616 12.4037 13.6327 13.6327C12.4038 14.8616 10.737 15.552 8.99905 15.552Z" fill="#585CE5"/>
<path d="M8.99902 4.085C8.23864 4.085 7.50941 4.38706 6.97174 4.92472C6.43408 5.46239 6.13202 6.19162 6.13202 6.952C6.13202 7.16921 6.21831 7.37753 6.3719 7.53112C6.52549 7.68471 6.73381 7.771 6.95102 7.771C7.16823 7.771 7.37655 7.68471 7.53014 7.53112C7.68373 7.37753 7.77002 7.16921 7.77002 6.952C7.77081 6.7091 7.84356 6.47188 7.97908 6.2703C8.11461 6.06871 8.30683 5.91181 8.53147 5.81941C8.75611 5.727 9.00309 5.70323 9.24123 5.7511C9.47937 5.79897 9.69798 5.91634 9.86946 6.08838C10.0409 6.26041 10.1576 6.47941 10.2047 6.7177C10.2518 6.95599 10.2272 7.2029 10.1341 7.42724C10.0409 7.65157 9.88342 7.84328 9.6814 7.97815C9.47938 8.11302 9.24192 8.185 8.99902 8.185C8.78181 8.185 8.57349 8.27129 8.4199 8.42488C8.26631 8.57847 8.18002 8.78679 8.18002 9.004V10.642C8.18002 10.8592 8.26631 11.0675 8.4199 11.2211C8.57349 11.3747 8.78181 11.461 8.99902 11.461C9.21623 11.461 9.42455 11.3747 9.57814 11.2211C9.73173 11.0675 9.81802 10.8592 9.81802 10.642V9.685C10.4773 9.48949 11.044 9.06294 11.4142 8.48352C11.7845 7.90411 11.9336 7.21065 11.8341 6.53026C11.7345 5.84988 11.3932 5.22815 10.8725 4.77904C10.3518 4.32993 9.68664 4.08352 8.99902 4.085Z" fill="#585CE5"/>
<path d="M8.99902 13.999C9.55131 13.999 9.99902 13.5513 9.99902 12.999C9.99902 12.4467 9.55131 11.999 8.99902 11.999C8.44674 11.999 7.99902 12.4467 7.99902 12.999C7.99902 13.5513 8.44674 13.999 8.99902 13.999Z" fill="#585CE5"/>
</svg>
