<svg width="10" height="17" viewBox="0 0 10 17" fill="none" xmlns="http://www.w3.org/2000/svg">
<path d="M3.70997 8.00099L9.17197 2.05399C9.39573 1.82767 9.52122 1.52225 9.52122 1.20399C9.52122 0.885737 9.39573 0.580315 9.17197 0.353993C9.06191 0.242335 8.93075 0.15367 8.78611 0.0931501C8.64148 0.0326307 8.48626 0.00146484 8.32947 0.00146484C8.17269 0.00146484 8.01747 0.0326307 7.87283 0.0931501C7.7282 0.15367 7.59704 0.242335 7.48697 0.353993L0.826973 7.15399C0.603939 7.38069 0.478943 7.68597 0.478943 8.00399C0.478943 8.32201 0.603939 8.62729 0.826973 8.85399L7.48697 15.654C7.59704 15.7657 7.7282 15.8543 7.87283 15.9148C8.01747 15.9754 8.17269 16.0065 8.32947 16.0065C8.48626 16.0065 8.64148 15.9754 8.78611 15.9148C8.93075 15.8543 9.06191 15.7657 9.17197 15.654C9.39573 15.4277 9.52122 15.1222 9.52122 14.804C9.52122 14.4857 9.39573 14.1803 9.17197 13.954L3.70997 8.00099Z" fill="#585EE5"/>
</svg>
