<svg width="113" height="113" viewBox="0 0 113 113" fill="none" xmlns="http://www.w3.org/2000/svg">
<path d="M56.605 112.773C87.6914 112.773 112.892 87.5725 112.892 56.486C112.892 25.3996 87.6914 0.199005 56.605 0.199005C25.5185 0.199005 0.317993 25.3996 0.317993 56.486C0.317993 87.5725 25.5185 112.773 56.605 112.773Z" fill="#585CE5" fill-opacity="0.1"/>
<path d="M57.0571 75.466C67.3588 75.466 75.7101 67.1148 75.7101 56.813C75.7101 46.5112 67.3588 38.16 57.0571 38.16C46.7553 38.16 38.4041 46.5112 38.4041 56.813C38.4041 67.1148 46.7553 75.466 57.0571 75.466Z" fill="#585CE5"/>
<path d="M57.0571 77.966C68.7395 77.966 78.2101 68.4955 78.2101 56.813C78.2101 45.1305 68.7395 35.66 57.0571 35.66C45.3746 35.66 35.9041 45.1305 35.9041 56.813C35.9041 68.4955 45.3746 77.966 57.0571 77.966Z" stroke="white" stroke-width="5" stroke-miterlimit="10"/>
<path d="M57 47C54.8921 46.9999 52.8693 47.8318 51.3712 49.3148C49.8732 50.7978 49.0211 52.8122 49 54.92C49 60.4 56.05 66.5 56.35 66.76C56.5311 66.9149 56.7616 67.0001 57 67.0001C57.2384 67.0001 57.4689 66.9149 57.65 66.76C58 66.5 65 60.4 65 54.92C64.9789 52.8122 64.1268 50.7978 62.6288 49.3148C61.1307 47.8318 59.1079 46.9999 57 47ZM57 64.65C55.33 63.06 51 58.65 51 54.92C51 53.3287 51.6321 51.8026 52.7574 50.6774C53.8826 49.5521 55.4087 48.92 57 48.92C58.5913 48.92 60.1174 49.5521 61.2426 50.6774C62.3679 51.8026 63 53.3287 63 54.92C63 58.62 58.67 63.06 57 64.65Z" fill="white"/>
<path d="M57 51C56.3078 51 55.6311 51.2053 55.0555 51.5899C54.4799 51.9744 54.0313 52.5211 53.7664 53.1606C53.5015 53.8001 53.4322 54.5039 53.5673 55.1828C53.7023 55.8618 54.0356 56.4854 54.5251 56.9749C55.0146 57.4644 55.6383 57.7977 56.3172 57.9327C56.9961 58.0678 57.6999 57.9985 58.3394 57.7336C58.9789 57.4687 59.5256 57.0201 59.9101 56.4445C60.2947 55.8689 60.5 55.1922 60.5 54.5C60.5 53.5717 60.1313 52.6815 59.4749 52.0251C58.8185 51.3687 57.9283 51 57 51ZM57 56C56.7033 56 56.4133 55.912 56.1666 55.7472C55.92 55.5824 55.7277 55.3481 55.6142 55.074C55.5007 54.7999 55.4709 54.4983 55.5288 54.2074C55.5867 53.9164 55.7296 53.6491 55.9393 53.4393C56.1491 53.2296 56.4164 53.0867 56.7074 53.0288C56.9983 52.9709 57.2999 53.0006 57.574 53.1142C57.8481 53.2277 58.0824 53.42 58.2472 53.6666C58.412 53.9133 58.5 54.2033 58.5 54.5C58.5 54.8978 58.342 55.2794 58.0607 55.5607C57.7794 55.842 57.3978 56 57 56Z" fill="white"/>
</svg>
