<svg width="16" height="17" viewBox="0 0 16 17" fill="none" xmlns="http://www.w3.org/2000/svg">
<path d="M8.474 9.798L6.634 11.63C6.55928 11.7045 6.49997 11.793 6.45945 11.8905C6.41894 11.9879 6.39801 12.0924 6.39787 12.1979C6.39773 12.3035 6.41838 12.408 6.45864 12.5056C6.4989 12.6031 6.55797 12.6918 6.6325 12.7665C6.70703 12.8412 6.79554 12.9005 6.89299 12.9411C6.99043 12.9816 7.09491 13.0025 7.20044 13.0026C7.30597 13.0028 7.4105 12.9821 7.50805 12.9419C7.60561 12.9016 7.69428 12.8425 7.769 12.768L10.969 9.568C11.1141 9.41447 11.1949 9.21124 11.1949 9C11.1949 8.78876 11.1141 8.58554 10.969 8.432L7.769 5.232C7.61849 5.08136 7.4143 4.99668 7.20135 4.99658C6.98841 4.99649 6.78414 5.08099 6.6335 5.2315C6.48286 5.38201 6.39817 5.5862 6.39808 5.79915C6.39799 6.0121 6.48249 6.21636 6.633 6.367L8.474 8.198H0.8C0.587827 8.198 0.384344 8.28229 0.234315 8.43232C0.0842856 8.58235 0 8.78583 0 8.998C0 9.21018 0.0842856 9.41366 0.234315 9.56369C0.384344 9.71372 0.587827 9.798 0.8 9.798H8.474ZM8 0.998002C6.50477 0.99142 5.03762 1.40401 3.76499 2.18898C2.49235 2.97395 1.46518 4.09986 0.8 5.439C0.706091 5.62977 0.691474 5.84995 0.75934 6.05146C0.827207 6.25298 0.972044 6.41945 1.16223 6.51454C1.35241 6.60964 1.5725 6.62562 1.77443 6.55901C1.97636 6.49239 2.14373 6.34859 2.24 6.159C2.87409 4.85176 3.93197 3.79763 5.24144 3.16817C6.55091 2.5387 8.03488 2.37098 9.45182 2.6923C10.8687 3.01361 12.1352 3.80504 13.0451 4.93778C13.9549 6.07052 14.4546 7.47786 14.4628 8.93074C14.471 10.3836 13.9872 11.7965 13.0902 12.9394C12.1931 14.0823 10.9356 14.888 9.52241 15.2252C8.10919 15.5625 6.62342 15.4115 5.30694 14.7968C3.99046 14.1822 2.92078 13.14 2.272 11.84C2.22513 11.7448 2.15988 11.6598 2.08003 11.5899C2.00017 11.5199 1.90728 11.4665 1.8067 11.4326C1.70611 11.3988 1.59982 11.3851 1.49395 11.3925C1.38807 11.3998 1.28469 11.4281 1.18976 11.4755C1.09483 11.523 1.01022 11.5887 0.940805 11.669C0.87139 11.7493 0.818537 11.8425 0.785287 11.9433C0.752037 12.0441 0.739047 12.1505 0.747064 12.2563C0.755081 12.3622 0.783946 12.4654 0.832 12.56C1.46656 13.8361 2.43049 14.9195 3.62412 15.6982C4.81774 16.4769 6.19771 16.9226 7.62133 16.9893C9.04494 17.0559 10.4605 16.741 11.7216 16.0771C12.9827 15.4133 14.0436 14.4246 14.7946 13.2133C15.5455 12.0021 15.9593 10.6122 15.993 9.18739C16.0267 7.76262 15.6793 6.3547 14.9865 5.10923C14.2937 3.86377 13.2808 2.82598 12.0525 2.10319C10.8242 1.3804 9.42517 0.998849 8 0.998002Z" fill="white"/>
</svg>
