<svg id="Layer_1" data-name="Layer 1" xmlns="http://www.w3.org/2000/svg" viewBox="0 0 512 512"><defs><style>.cls-1{fill:#fff;}.cls-2{fill:#5b62ac;}.cls-3{fill:#ed8950;}.cls-4{fill:none;}</style></defs><rect class="cls-1" width="512" height="512" rx="155.7"/><path class="cls-2" d="M341.46,297.46,204.07,434.85C183.8,414.13,176,387.15,176,387.15c-17.6-57.93,19.57-101,19.57-101l68.34-68.35,1.65-1.65a22.19,22.19,0,1,1,27,35.07L251,292.77a14.36,14.36,0,0,0,0,20.31h0a14.36,14.36,0,0,0,20.31,0l97-97C377.23,263.39,341.46,297.46,341.46,297.46Z"/><path class="cls-3" d="M365.48,182.9h0l-40,41.14a50.84,50.84,0,0,0-11.2-22.42,46.07,46.07,0,0,0-9.31-8.49c-8.32-5.79-17.41-7.34-25.76-6.87-1.73.1-3.42.28-5.07.52A58.25,58.25,0,0,0,242,203.15L203.71,241,148.9,185.25a62.4,62.4,0,0,1,84.67-91.68l.93.88L256,114.39l20.7-19.17c.95-.94,1.93-1.85,2.93-2.73a62.39,62.39,0,0,1,85.85,90.41Z"/><line class="cls-4" x1="292.8" y1="250.96" x2="292.53" y2="251.24"/><line class="cls-4" x1="265.64" y1="216.08" x2="265.55" y2="216.17"/></svg>