<svg width="28" height="26" viewBox="0 0 28 26" fill="none" xmlns="http://www.w3.org/2000/svg">
<path d="M15.266 17.356L22.086 10.526C22.1973 10.4167 22.2814 10.283 22.3318 10.1354C22.3821 9.9878 22.3973 9.83048 22.376 9.676L21.736 5.226L22.796 4.166L24.216 2.746C24.3146 2.65357 24.3938 2.54238 24.4489 2.41893C24.504 2.29549 24.5338 2.16229 24.5367 2.02715C24.5396 1.892 24.5155 1.75764 24.4658 1.63195C24.4161 1.50625 24.3417 1.39176 24.2471 1.29518C24.1526 1.19861 24.0396 1.1219 23.915 1.06955C23.7904 1.01721 23.6566 0.99028 23.5214 0.990357C23.3862 0.990433 23.2524 1.01751 23.1279 1.06999C23.0033 1.12248 22.8905 1.19932 22.796 1.296L20.326 3.806L15.866 3.176C15.7123 3.15345 15.5555 3.16701 15.4079 3.21561C15.2604 3.26421 15.1262 3.34652 15.016 3.456L2.41599 16.066C2.22974 16.2534 2.1252 16.5068 2.1252 16.771C2.1252 17.0352 2.22974 17.2886 2.41599 17.476L3.12599 18.186L1.70599 19.606C1.61275 19.5134 1.50219 19.4401 1.38062 19.3903C1.25905 19.3404 1.12885 19.315 0.997454 19.3154C0.866059 19.3159 0.736042 19.3423 0.614827 19.393C0.493612 19.4437 0.383572 19.5178 0.29099 19.611C0.198408 19.7042 0.125097 19.8148 0.0752433 19.9364C0.0253896 20.0579 -3.08011e-05 20.1881 0.000433493 20.3195C0.000897788 20.4509 0.0272377 20.5809 0.0779493 20.7022C0.128661 20.8234 0.202751 20.9334 0.29599 21.026L4.53599 25.296C4.62564 25.4007 4.73595 25.4857 4.86002 25.5457C4.98408 25.6057 5.11922 25.6395 5.25694 25.6448C5.39466 25.6501 5.53199 25.6269 5.66031 25.5766C5.78864 25.5264 5.90519 25.4501 6.00264 25.3527C6.10009 25.2552 6.17635 25.1386 6.22663 25.0103C6.2769 24.882 6.30011 24.7447 6.29479 24.6069C6.28947 24.4692 6.25574 24.3341 6.19572 24.21C6.13569 24.086 6.05067 23.9756 5.94599 23.886L7.35599 22.466L8.05599 23.176C8.24555 23.3619 8.50047 23.4661 8.76599 23.4661C9.0315 23.4661 9.28643 23.3619 9.47599 23.176L12.716 19.936L15.256 17.406L15.266 17.356ZM4.53599 22.426L3.12599 21.016L4.53599 19.596L5.94599 21.016L4.53599 22.426ZM8.77599 21.016L8.06599 20.296L5.23599 17.476L4.53599 16.776L16.076 5.226L19.796 5.756L20.326 9.466L14.556 15.236L12.436 13.116C12.249 12.9277 11.9949 12.8214 11.7295 12.8204C11.4642 12.8195 11.2093 12.924 11.021 13.111C10.8327 13.298 10.7264 13.5521 10.7254 13.8175C10.7245 14.0828 10.829 14.3377 11.016 14.526L13.146 16.646L12.016 17.766L9.89599 15.646C9.70769 15.459 9.45282 15.3545 9.18745 15.3554C8.92209 15.3564 8.66797 15.4627 8.48099 15.651C8.29401 15.8393 8.1895 16.0942 8.19043 16.3595C8.19137 16.6249 8.29769 16.879 8.48599 17.066L10.646 19.186L8.77599 21.016ZM27.046 18.086L25.236 13.846C25.1591 13.6656 25.031 13.5118 24.8674 13.4037C24.7038 13.2956 24.5121 13.2379 24.316 13.2379C24.1199 13.2379 23.9282 13.2956 23.7646 13.4037C23.601 13.5118 23.4728 13.6656 23.396 13.846L21.576 18.086C21.37 18.5429 21.2818 19.0441 21.3194 19.5439C21.357 20.0436 21.5192 20.526 21.7912 20.9469C22.0632 21.3679 22.4363 21.714 22.8765 21.9536C23.3166 22.1932 23.8098 22.3188 24.311 22.3188C24.8122 22.3188 25.3053 22.1932 25.7455 21.9536C26.1857 21.714 26.5588 21.3679 26.8307 20.9469C27.1027 20.526 27.2649 20.0436 27.3025 19.5439C27.3401 19.0441 27.2519 18.5429 27.046 18.086ZM25.126 19.796C24.9917 19.9986 24.7865 20.1437 24.5507 20.2029C24.3149 20.2621 24.0655 20.231 23.8514 20.1159C23.6373 20.0007 23.474 19.8097 23.3934 19.5803C23.3129 19.3509 23.3209 19.0997 23.416 18.876L24.316 16.776L25.216 18.876C25.2761 19.0253 25.2993 19.1869 25.2837 19.347C25.268 19.5072 25.2139 19.6612 25.126 19.796Z" fill="#585CE5"/>
</svg>
