<svg width="26" height="26" viewBox="0 0 26 26" fill="none" xmlns="http://www.w3.org/2000/svg">
<path d="M23.626 2.198C22.2112 0.790433 20.2967 0.000274658 18.301 0.000274658C16.3053 0.000274658 14.3908 0.790433 12.976 2.198L2.20599 12.968C0.814914 14.3847 0.0395535 16.2933 0.0486013 18.2788C0.057649 20.2642 0.850372 22.1658 2.2543 23.5697C3.65823 24.9736 5.55977 25.7663 7.5452 25.7754C9.53064 25.7844 11.4393 25.0091 12.856 23.618L23.626 12.848C25.0336 11.4332 25.8237 9.5187 25.8237 7.523C25.8237 5.5273 25.0336 3.61277 23.626 2.198ZM11.436 22.198C10.9257 22.7221 10.3164 23.1397 9.64339 23.4264C8.97041 23.7131 8.24716 23.8633 7.51566 23.8682C6.78416 23.8731 6.05897 23.7327 5.3822 23.455C4.70543 23.1773 4.09056 22.768 3.5733 22.2507C3.05604 21.7334 2.64668 21.1186 2.36901 20.4418C2.09134 19.765 1.95087 19.0398 1.95577 18.3083C1.96068 17.5768 2.11085 16.8536 2.39757 16.1806C2.68428 15.5076 3.10184 14.8983 3.62599 14.388L8.29599 9.708L16.116 17.528L11.436 22.198ZM22.206 11.428L17.536 16.108L9.71599 8.288L14.396 3.618C14.9063 3.09385 15.5156 2.67629 16.1886 2.38957C16.8616 2.10285 17.5848 1.95268 18.3163 1.94778C19.0478 1.94288 19.773 2.08334 20.4498 2.36102C21.1266 2.63869 21.7414 3.04804 22.2587 3.56531C22.7759 4.08257 23.1853 4.69743 23.463 5.3742C23.7406 6.05097 23.8811 6.77616 23.8762 7.50767C23.8713 8.23917 23.7211 8.96241 23.4344 9.6354C23.1477 10.3084 22.7301 10.9177 22.206 11.428ZM20.916 10.908L18.966 12.858C18.7777 13.045 18.5228 13.1495 18.2575 13.1486C17.9921 13.1476 17.738 13.0413 17.551 12.853C17.364 12.6647 17.2595 12.4098 17.2604 12.1445C17.2614 11.8791 17.3677 11.625 17.556 11.438L19.506 9.488C19.7633 9.23158 19.9675 8.9269 20.1068 8.59142C20.2461 8.25593 20.3178 7.89625 20.3178 7.533C20.3178 7.16974 20.2461 6.81006 20.1068 6.47458C19.9675 6.1391 19.7633 5.83441 19.506 5.578C19.3422 5.3867 19.2566 5.14062 19.2663 4.88894C19.276 4.63727 19.3803 4.39853 19.5584 4.22043C19.7365 4.04234 19.9753 3.93801 20.2269 3.92829C20.4786 3.91856 20.7247 4.00417 20.916 4.168C21.8088 5.06231 22.3102 6.27433 22.3102 7.538C22.3102 8.80166 21.8088 10.0137 20.916 10.908Z" fill="#585CE5"/>
</svg>
