<svg width="16" height="20" viewBox="0 0 16 20" fill="none" xmlns="http://www.w3.org/2000/svg">
<path d="M8 0.999993C6.74186 0.940203 5.51095 1.37932 4.57473 2.22192C3.63851 3.06452 3.07261 4.24253 3 5.49999V8.20001C2.26692 8.15318 1.54431 8.39293 0.984614 8.86868C0.424914 9.34442 0.0718854 10.0189 0 10.75V16.45C0.043628 17.1619 0.365094 17.8281 0.895164 18.3052C1.42523 18.7824 2.1215 19.0322 2.834 19.001H13.166C13.8785 19.0322 14.5748 18.7824 15.1048 18.3052C15.6349 17.8281 15.9564 17.1619 16 16.45V10.75C16 9.05499 14.479 8.20101 13 8.20101V5.501C12.9276 4.24336 12.3619 3.0651 11.4256 2.22228C10.4894 1.37947 9.2583 0.94021 8 0.999993ZM8 2.80001C8.37484 2.77776 8.75036 2.8302 9.10476 2.95428C9.45917 3.07835 9.78539 3.2716 10.0645 3.52279C10.3436 3.77398 10.57 4.07811 10.7306 4.41753C10.8912 4.75696 10.9828 5.12489 11 5.49999V8.20001H5V5.49999C5.01722 5.12489 5.10879 4.75696 5.26938 4.41753C5.42997 4.07811 5.6564 3.77398 5.9355 3.52279C6.21461 3.2716 6.54083 3.07835 6.89524 2.95428C7.24964 2.8302 7.62516 2.77776 8 2.80001ZM2.834 9.99999H13.166C13.2706 9.99167 13.3758 10.0048 13.4752 10.0384C13.5746 10.0721 13.6661 10.1256 13.7442 10.1958C13.8222 10.266 13.8851 10.3513 13.9291 10.4466C13.9731 10.5419 13.9972 10.6451 14 10.75V16.45C13.9972 16.555 13.9731 16.6582 13.9291 16.7536C13.8851 16.8489 13.8222 16.9343 13.7442 17.0045C13.6662 17.0748 13.5747 17.1284 13.4753 17.1622C13.3759 17.196 13.2707 17.2092 13.166 17.201H2.834C2.72934 17.2092 2.6241 17.196 2.5247 17.1622C2.4253 17.1284 2.33381 17.0748 2.25579 17.0045C2.17778 16.9343 2.11487 16.8489 2.0709 16.7536C2.02692 16.6582 2.0028 16.555 2 16.45V10.75C2.00279 10.6451 2.02692 10.5419 2.0709 10.4466C2.11489 10.3513 2.17781 10.266 2.25585 10.1958C2.33388 10.1256 2.42538 10.0721 2.52478 10.0384C2.62418 10.0048 2.72939 9.99167 2.834 9.99999Z" fill="white"/>
</svg>
