<svg width="16" height="16" viewBox="0 0 16 16" fill="none" xmlns="http://www.w3.org/2000/svg">
<path d="M14.879 5.757V3.437L12.547 2.27L10.279 0L8 0.57L5.721 0L3.453 2.27L1.121 3.437V5.757L0 8L1.121 10.243V12.563L3.453 13.73L5.721 16L8 15.43L10.279 16L12.547 13.73L14.88 12.563V10.243L16 8L14.879 5.757ZM13.821 9.993V11.909L12 12.822L9.958 14.822L8 14.337L6.045 14.826L4.14 12.92L2.178 11.908V9.993L1.183 8L2.183 6.007V4.091L4 3.178L6.046 1.172L8 1.662L9.955 1.173L11.86 3.079L13.822 4.091V6.007L14.817 8L13.821 9.993Z" fill="white"/>
<path d="M10.6458 4.6472L4.646 10.647L5.3531 11.3541L11.3529 5.35431L10.6458 4.6472Z" fill="white"/>
<path d="M5.854 7.353C6.15068 7.353 6.44069 7.26502 6.68736 7.1002C6.93403 6.93538 7.12629 6.70111 7.23982 6.42702C7.35335 6.15293 7.38306 5.85133 7.32518 5.56036C7.2673 5.26939 7.12444 5.00212 6.91466 4.79234C6.70489 4.58256 6.43761 4.4397 6.14664 4.38182C5.85567 4.32394 5.55407 4.35365 5.27998 4.46718C5.00589 4.58071 4.77162 4.77297 4.6068 5.01964C4.44198 5.26632 4.354 5.55633 4.354 5.853C4.354 6.25082 4.51204 6.63235 4.79334 6.91366C5.07465 7.19496 5.45618 7.353 5.854 7.353ZM5.854 5.353C5.95289 5.353 6.04956 5.38232 6.13179 5.43726C6.21401 5.4922 6.2781 5.57029 6.31594 5.66166C6.35379 5.75302 6.36369 5.85355 6.3444 5.95054C6.3251 6.04753 6.27748 6.13662 6.20756 6.20655C6.13763 6.27648 6.04854 6.3241 5.95155 6.34339C5.85456 6.36268 5.75403 6.35278 5.66266 6.31494C5.5713 6.27709 5.49321 6.21301 5.43827 6.13078C5.38333 6.04856 5.354 5.95189 5.354 5.853C5.354 5.72039 5.40668 5.59321 5.50045 5.49944C5.59422 5.40568 5.7214 5.353 5.854 5.353Z" fill="white"/>
<path d="M10.146 8.647C9.84932 8.647 9.55932 8.73498 9.31264 8.8998C9.06597 9.06462 8.87371 9.29889 8.76018 9.57298C8.64665 9.84707 8.61694 10.1487 8.67482 10.4396C8.7327 10.7306 8.87556 10.9979 9.08534 11.2077C9.29512 11.4174 9.56239 11.5603 9.85336 11.6182C10.1443 11.6761 10.4459 11.6464 10.72 11.5328C10.9941 11.4193 11.2284 11.227 11.3932 10.9804C11.558 10.7337 11.646 10.4437 11.646 10.147C11.646 9.74918 11.488 9.36765 11.2067 9.08634C10.9254 8.80504 10.5438 8.647 10.146 8.647ZM10.146 10.647C10.0471 10.647 9.95044 10.6177 9.86821 10.5627C9.78599 10.5078 9.7219 10.4297 9.68406 10.3383C9.64621 10.247 9.63631 10.1464 9.6556 10.0495C9.6749 9.95247 9.72252 9.86338 9.79244 9.79345C9.86237 9.72352 9.95146 9.6759 10.0485 9.65661C10.1454 9.63732 10.246 9.64722 10.3373 9.68506C10.4287 9.72291 10.5068 9.78699 10.5617 9.86922C10.6167 9.95144 10.646 10.0481 10.646 10.147C10.646 10.2796 10.5933 10.4068 10.4996 10.5006C10.4058 10.5943 10.2786 10.647 10.146 10.647Z" fill="white"/>
</svg>
