<svg width="8" height="13" viewBox="0 0 8 13" fill="none" xmlns="http://www.w3.org/2000/svg">
<path d="M0.478875 1.53999C0.310575 1.3703 0.216142 1.14098 0.216142 0.901989C0.216142 0.662993 0.310575 0.433678 0.478875 0.263989C0.56141 0.180177 0.659791 0.113618 0.768292 0.0681869C0.876793 0.0227556 0.993247 -0.000640869 1.11088 -0.000640869C1.2285 -0.000640869 1.34496 0.0227556 1.45346 0.0681869C1.56196 0.113618 1.66034 0.180177 1.74288 0.263989L6.74287 5.36399C6.91075 5.5341 7.00488 5.76349 7.00488 6.00249C7.00488 6.24149 6.91075 6.47088 6.74287 6.64099L1.74288 11.741C1.66034 11.8248 1.56196 11.8914 1.45346 11.9368C1.34496 11.9822 1.2285 12.0056 1.11088 12.0056C0.993247 12.0056 0.876793 11.9822 0.768292 11.9368C0.659791 11.8914 0.56141 11.8248 0.478875 11.741C0.310996 11.5709 0.216867 11.3415 0.216867 11.1025C0.216867 10.8635 0.310996 10.6341 0.478875 10.464L4.57587 5.99999L0.478875 1.53999Z" fill="white"/>
</svg>
