<svg width="20" height="24" viewBox="0 0 20 24" fill="none" xmlns="http://www.w3.org/2000/svg">
<path d="M17 2.4H15V1.2C15.024 0.9088 14.9326 0.619831 14.7456 0.395367C14.5585 0.170903 14.2908 0.0289141 14 0C13.7092 0.0289141 13.4415 0.170903 13.2544 0.395367C13.0674 0.619831 12.976 0.9088 13 1.2V2.4H7V1.2C7.02399 0.9088 6.93261 0.619831 6.74556 0.395367C6.55851 0.170903 6.29075 0.0289141 6 0C5.70925 0.0289141 5.44149 0.170903 5.25444 0.395367C5.06739 0.619831 4.97601 0.9088 5 1.2V2.4H3C1.343 2.4 0 4.012 0 6V20.4C0 22.388 1.343 24 3 24H17C18.657 24 20 22.388 20 20.4V6C20 4.012 18.657 2.4 17 2.4ZM18 20.4C18.024 20.6912 17.9326 20.9802 17.7456 21.2046C17.5585 21.4291 17.2908 21.5711 17 21.6H3C2.70925 21.5711 2.44149 21.4291 2.25444 21.2046C2.06739 20.9802 1.97601 20.6912 2 20.4V12H18V20.4ZM18 9.6H2V6C1.97601 5.7088 2.06739 5.41983 2.25444 5.19537C2.44149 4.9709 2.70925 4.82891 3 4.8H5V6C4.97601 6.2912 5.06739 6.58017 5.25444 6.80463C5.44149 7.0291 5.70925 7.17109 6 7.2C6.29075 7.17109 6.55851 7.0291 6.74556 6.80463C6.93261 6.58017 7.02399 6.2912 7 6V4.8H13V6C12.976 6.2912 13.0674 6.58017 13.2544 6.80463C13.4415 7.0291 13.7092 7.17109 14 7.2C14.2908 7.17109 14.5585 7.0291 14.7456 6.80463C14.9326 6.58017 15.024 6.2912 15 6V4.8H17C17.2908 4.82891 17.5585 4.9709 17.7456 5.19537C17.9326 5.41983 18.024 5.7088 18 6V9.6Z" fill="#AEB0FF"/>
</svg>
