<svg width="19" height="19" viewBox="0 0 19 19" fill="none" xmlns="http://www.w3.org/2000/svg">
<path d="M17.71 16.29L14.31 12.9C15.407 11.5025 16.0022 9.77666 16 8C16 6.41775 15.5308 4.87103 14.6518 3.55544C13.7727 2.23985 12.5233 1.21447 11.0615 0.608967C9.59966 0.00346625 7.99113 -0.15496 6.43928 0.153721C4.88743 0.462403 3.46197 1.22433 2.34315 2.34315C1.22433 3.46197 0.462403 4.88743 0.153721 6.43928C-0.15496 7.99113 0.00346625 9.59966 0.608967 11.0615C1.21447 12.5233 2.23985 13.7727 3.55544 14.6518C4.87103 15.5308 6.41775 16 8 16C9.77666 16.0022 11.5025 15.407 12.9 14.31L16.29 17.71C16.3832 17.8032 16.4939 17.8772 16.6158 17.9277C16.7376 17.9781 16.8681 18.0041 17 18.0041C17.1319 18.0041 17.2624 17.9781 17.3843 17.9277C17.5061 17.8772 17.6168 17.8032 17.71 17.71C17.8032 17.6168 17.8772 17.5061 17.9277 17.3843C17.9781 17.2624 18.0041 17.1319 18.0041 17C18.0041 16.8681 17.9781 16.7376 17.9277 16.6158C17.8772 16.4939 17.8032 16.3832 17.71 16.29ZM2 8C2 6.81332 2.3519 5.65328 3.01119 4.66658C3.67047 3.67989 4.60755 2.91085 5.7039 2.45673C6.80026 2.0026 8.00666 1.88378 9.17055 2.11529C10.3344 2.3468 11.4035 2.91825 12.2426 3.75736C13.0818 4.59648 13.6532 5.66558 13.8847 6.82946C14.1162 7.99335 13.9974 9.19975 13.5433 10.2961C13.0892 11.3925 12.3201 12.3295 11.3334 12.9888C10.3467 13.6481 9.18669 14 8 14C6.4087 14 4.88258 13.3679 3.75736 12.2426C2.63214 11.1174 2 9.5913 2 8Z" fill="#656565"/>
</svg>
