<svg width="20" height="20" viewBox="0 0 20 20" fill="none" xmlns="http://www.w3.org/2000/svg">
<path d="M12.707 7.29297C12.5194 7.1055 12.2651 7.00018 12 7.00018C11.7348 7.00018 11.4805 7.1055 11.293 7.29297L8.29296 10.293C8.19745 10.3852 8.12127 10.4956 8.06886 10.6176C8.01645 10.7396 7.98886 10.8708 7.98771 11.0036C7.98655 11.1363 8.01186 11.268 8.06214 11.3909C8.11242 11.5138 8.18667 11.6255 8.28056 11.7194C8.37446 11.8133 8.48611 11.8875 8.60901 11.9378C8.7319 11.9881 8.86358 12.0134 8.99636 12.0122C9.12914 12.0111 9.26036 11.9835 9.38236 11.9311C9.50437 11.8787 9.61471 11.8025 9.70696 11.707L12.707 8.70697C12.8944 8.51944 12.9997 8.26513 12.9997 7.99997C12.9997 7.73481 12.8944 7.4805 12.707 7.29297Z" fill="white"/>
<path d="M19.707 0.292995C19.5698 0.155859 19.3958 0.0615733 19.2059 0.0216239C19.0161 -0.0183254 18.8188 -0.00221409 18.638 0.0679954L0.638008 7.068C0.449345 7.14143 0.287414 7.2704 0.173627 7.43784C0.0598406 7.60529 -0.000442372 7.80333 0.000749768 8.00578C0.00194191 8.20823 0.0645531 8.40555 0.180304 8.57164C0.296055 8.73774 0.459493 8.86479 0.649008 8.936L8.22301 11.776L11.063 19.351C11.1343 19.5406 11.2615 19.7041 11.4277 19.8198C11.594 19.9355 11.7915 19.998 11.994 19.999H12C12.2016 19.999 12.3984 19.938 12.5647 19.8242C12.731 19.7103 12.859 19.5489 12.932 19.361L19.932 1.361C20.002 1.18032 20.018 0.983194 19.9781 0.793592C19.9381 0.60399 19.844 0.430077 19.707 0.292995ZM12.017 16.193L9.93601 10.644C9.88588 10.5104 9.80774 10.3891 9.70684 10.2882C9.60594 10.1873 9.48461 10.1091 9.35101 10.059L3.80001 7.983L17.244 2.756L12.017 16.193Z" fill="white"/>
</svg>
