<svg width="24" height="28" viewBox="0 0 24 28" fill="none" xmlns="http://www.w3.org/2000/svg">
<path d="M23.18 2.01902L12.18 0.019024C12.0608 -0.000929534 11.9392 -0.000929534 11.82 0.019024L0.820011 2.01902C0.587053 2.06162 0.376773 2.18551 0.22661 2.36864C0.0764475 2.55176 -0.00385127 2.78224 1.10396e-05 3.01902V16.019C0.0250717 18.0278 0.626435 19.9872 1.73261 21.6642C2.83879 23.3412 4.40325 24.6653 6.24001 25.479L11.59 27.909C11.7189 27.967 11.8587 27.9969 12 27.9969C12.1414 27.9969 12.2811 27.967 12.41 27.909L17.76 25.479C19.5468 24.5988 21.0667 23.2583 22.1635 21.5956C23.2602 19.9329 23.8941 18.008 24 16.019V3.01902C24.0039 2.78224 23.9236 2.55176 23.7734 2.36864C23.6232 2.18551 23.413 2.06162 23.18 2.01902ZM22 16.019C21.8948 17.6241 21.3715 19.1737 20.4821 20.514C19.5927 21.8542 18.3681 22.9385 16.93 23.659L12 25.919L7.07001 23.679C5.5792 23.0231 4.30853 21.9521 3.40958 20.5939C2.51062 19.2357 2.02131 17.6476 2.00001 16.019V3.84902L12 2.01902L22 3.84902V16.019ZM14.57 21.119C15.9473 20.5326 17.111 19.5369 17.9034 18.2668C18.6958 16.9968 19.0787 15.5139 19 14.019V11.019C19 10.7538 19.1054 10.4995 19.2929 10.3119C19.4804 10.1244 19.7348 10.019 20 10.019C20.2652 10.019 20.5196 10.1244 20.7071 10.3119C20.8947 10.4995 21 10.7538 21 11.019V14.019C21.0761 15.8884 20.5848 17.737 19.5907 19.3219C18.5965 20.9068 17.1461 22.1538 15.43 22.899C15.194 23.0131 14.9223 23.0287 14.6747 22.9424C14.4272 22.8561 14.2241 22.6751 14.11 22.439C13.996 22.203 13.9804 21.9313 14.0666 21.6838C14.1529 21.4362 14.334 21.2331 14.57 21.119ZM12 9.01902C12.2652 9.01902 12.5196 9.12438 12.7071 9.31192C12.8947 9.49945 13 9.75381 13 10.019V12.019H15C15.2652 12.019 15.5196 12.1244 15.7071 12.3119C15.8947 12.4995 16 12.7538 16 13.019C16 13.2842 15.8947 13.5386 15.7071 13.7261C15.5196 13.9137 15.2652 14.019 15 14.019H13V16.019C13 16.2842 12.8947 16.5386 12.7071 16.7261C12.5196 16.9137 12.2652 17.019 12 17.019C11.7348 17.019 11.4804 16.9137 11.2929 16.7261C11.1054 16.5386 11 16.2842 11 16.019V14.019H9.00001C8.73479 14.019 8.48044 13.9137 8.2929 13.7261C8.10537 13.5386 8.00001 13.2842 8.00001 13.019C8.00001 12.7538 8.10537 12.4995 8.2929 12.3119C8.48044 12.1244 8.73479 12.019 9.00001 12.019H11V10.019C11 9.75381 11.1054 9.49945 11.2929 9.31192C11.4804 9.12438 11.7348 9.01902 12 9.01902Z" fill="#585EE5"/>
</svg>
