<svg width="24" height="28" viewBox="0 0 24 28" fill="none" xmlns="http://www.w3.org/2000/svg">
<path d="M11 11.5V9.5C11 8.57174 10.6313 7.6815 9.97487 7.02513C9.3185 6.36875 8.42826 6 7.5 6C6.57174 6 5.6815 6.36875 5.02513 7.02513C4.36875 7.6815 4 8.57174 4 9.5V11.5C4 12.4283 4.36875 13.3185 5.02513 13.9749C5.6815 14.6313 6.57174 15 7.5 15C8.42826 15 9.3185 14.6313 9.97487 13.9749C10.6313 13.3185 11 12.4283 11 11.5ZM9 11.5C9 11.8978 8.84196 12.2794 8.56066 12.5607C8.27936 12.842 7.89782 13 7.5 13C7.10218 13 6.72064 12.842 6.43934 12.5607C6.15804 12.2794 6 11.8978 6 11.5V9.5C6 9.10218 6.15804 8.72064 6.43934 8.43934C6.72064 8.15804 7.10218 8 7.5 8C7.89782 8 8.27936 8.15804 8.56066 8.43934C8.84196 8.72064 9 9.10218 9 9.5V11.5ZM16.5 6C15.5717 6 14.6815 6.36875 14.0251 7.02513C13.3687 7.6815 13 8.57174 13 9.5V11.5C13 12.4283 13.3687 13.3185 14.0251 13.9749C14.6815 14.6313 15.5717 15 16.5 15C17.4283 15 18.3185 14.6313 18.9749 13.9749C19.6313 13.3185 20 12.4283 20 11.5V9.5C20 8.57174 19.6313 7.6815 18.9749 7.02513C18.3185 6.36875 17.4283 6 16.5 6ZM18 11.5C18 11.8978 17.842 12.2794 17.5607 12.5607C17.2794 12.842 16.8978 13 16.5 13C16.1022 13 15.7206 12.842 15.4393 12.5607C15.158 12.2794 15 11.8978 15 11.5V9.5C15 9.10218 15.158 8.72064 15.4393 8.43934C15.7206 8.15804 16.1022 8 16.5 8C16.8978 8 17.2794 8.15804 17.5607 8.43934C17.842 8.72064 18 9.10218 18 9.5V11.5ZM14 0H10C7.34784 0 4.8043 1.05357 2.92893 2.92893C1.05357 4.8043 0 7.34784 0 10V15C0 18.14 1.49 20 4 20V23C4 25.82 7.22 28 10 28H13C15.78 28 19 25.82 19 23V20H20C22.53 20 24 18.11 24 15V10C24 8.68678 23.7413 7.38642 23.2388 6.17317C22.7362 4.95991 21.9997 3.85752 21.0711 2.92893C20.1425 2.00035 19.0401 1.26375 17.8268 0.761205C16.6136 0.258658 15.3132 0 14 0ZM22 15C22 18 20.46 18 20 18H18C17.7348 18 17.4804 18.1054 17.2929 18.2929C17.1054 18.4804 17 18.7348 17 19V23C16.9693 23.3521 16.8643 23.6937 16.692 24.0022C16.5196 24.3108 16.2837 24.5793 16 24.79V23C16 22.7348 15.8946 22.4804 15.7071 22.2929C15.5196 22.1054 15.2652 22 15 22C14.7348 22 14.4804 22.1054 14.2929 22.2929C14.1054 22.4804 14 22.7348 14 23V25.85C13.6744 25.9421 13.3383 25.9925 13 26H12.5V23C12.5 22.7348 12.3946 22.4804 12.2071 22.2929C12.0196 22.1054 11.7652 22 11.5 22C11.2348 22 10.9804 22.1054 10.7929 22.2929C10.6054 22.4804 10.5 22.7348 10.5 23V26H10C9.66166 25.9925 9.32565 25.9421 9 25.85V23C9 22.7348 8.89464 22.4804 8.70711 22.2929C8.51957 22.1054 8.26522 22 8 22C7.73478 22 7.48043 22.1054 7.29289 22.2929C7.10536 22.4804 7 22.7348 7 23V24.79C6.71626 24.5793 6.48042 24.3108 6.30805 24.0022C6.13568 23.6937 6.03068 23.3521 6 23V19C6 18.7348 5.89464 18.4804 5.70711 18.2929C5.51957 18.1054 5.26522 18 5 18H4C3.5 18 2 18 2 15V10C2 7.87827 2.84285 5.84344 4.34315 4.34315C5.84344 2.84285 7.87827 2 10 2H14C16.1217 2 18.1566 2.84285 19.6569 4.34315C21.1571 5.84344 22 7.87827 22 10V15ZM14 18C13.53 18.88 10.57 18.82 10 18C9.43 17.18 11.1 15 12 15C12.9 15 14.43 17.21 14 18Z" fill="#585EE5"/>
</svg>
