<svg width="12" height="24" viewBox="0 0 12 24" fill="none" xmlns="http://www.w3.org/2000/svg">
<g clip-path="url(#clip0_107:9345)">
<path d="M11.3681 2.55743C11.7349 1.81419 12.7947 1.81419 13.1615 2.55743L15.5588 7.4149C15.7045 7.71005 15.9861 7.91462 16.3118 7.96195L21.6723 8.74088C22.4925 8.86006 22.8201 9.86803 22.2265 10.4466L18.3476 14.2276C18.1119 14.4573 18.0044 14.7883 18.06 15.1127L18.9757 20.4516C19.1158 21.2685 18.2584 21.8915 17.5248 21.5058L12.7302 18.9851C12.4388 18.8319 12.0908 18.8319 11.7995 18.9851L7.00486 21.5058C6.27123 21.8915 5.4138 21.2685 5.55391 20.4516L6.4696 15.1127C6.52524 14.7883 6.41769 14.4573 6.182 14.2276L2.30308 10.4466C1.70956 9.86804 2.03707 8.86006 2.85729 8.74088L8.21783 7.96195C8.54354 7.91462 8.82511 7.71005 8.97077 7.4149L11.3681 2.55743Z" fill="#F6CE42"/>
</g>
<defs>
<clipPath id="clip0_107:9345">
<rect width="12" height="24" fill="white"/>
</clipPath>
</defs>
</svg>
