<svg width="16" height="16" viewBox="0 0 16 16" fill="none" xmlns="http://www.w3.org/2000/svg">
<path d="M10.4 7.2H8.8V4C8.8 3.78783 8.71572 3.58434 8.56569 3.43431C8.41566 3.28429 8.21218 3.2 8 3.2C7.78783 3.2 7.58435 3.28429 7.43432 3.43431C7.28429 3.58434 7.2 3.78783 7.2 4V8C7.2 8.21217 7.28429 8.41566 7.43432 8.56569C7.58435 8.71571 7.78783 8.8 8 8.8H10.4C10.5051 8.8 10.6091 8.77931 10.7062 8.7391C10.8032 8.6989 10.8914 8.63997 10.9657 8.56569C11.04 8.4914 11.0989 8.40321 11.1391 8.30615C11.1793 8.20909 11.2 8.10506 11.2 8C11.2 7.89494 11.1793 7.79091 11.1391 7.69385C11.0989 7.59679 11.04 7.5086 10.9657 7.43431C10.8914 7.36003 10.8032 7.3011 10.7062 7.2609C10.6091 7.22069 10.5051 7.2 10.4 7.2ZM8 0C6.41775 0 4.87103 0.469192 3.55544 1.34824C2.23985 2.22729 1.21447 3.47672 0.608967 4.93853C0.00346625 6.40034 -0.15496 8.00887 0.153721 9.56072C0.462403 11.1126 1.22433 12.538 2.34315 13.6569C3.46197 14.7757 4.88743 15.5376 6.43928 15.8463C7.99113 16.155 9.59966 15.9965 11.0615 15.391C12.5233 14.7855 13.7727 13.7602 14.6518 12.4446C15.5308 11.129 16 9.58225 16 8C16 5.87827 15.1571 3.84344 13.6569 2.34315C12.1566 0.842855 10.1217 0 8 0ZM8 14.4C6.7342 14.4 5.49683 14.0246 4.44435 13.3214C3.39188 12.6182 2.57158 11.6186 2.08717 10.4492C1.60277 9.27973 1.47603 7.9929 1.72298 6.75142C1.96992 5.50994 2.57946 4.36957 3.47452 3.47452C4.36958 2.57946 5.50995 1.96992 6.75143 1.72297C7.9929 1.47603 9.27973 1.60277 10.4492 2.08717C11.6186 2.57157 12.6182 3.39188 13.3214 4.44435C14.0247 5.49683 14.4 6.7342 14.4 8C14.4 9.69739 13.7257 11.3253 12.5255 12.5255C11.3253 13.7257 9.69739 14.4 8 14.4Z" fill="#585EE5"/>
</svg>
