<svg width="16" height="18" viewBox="0 0 16 18" fill="none" xmlns="http://www.w3.org/2000/svg">
<path d="M10.971 9.56999C11.7593 8.94988 12.3348 8.09947 12.6172 7.13709C12.8997 6.1747 12.8752 5.14819 12.5471 4.20039C12.219 3.25259 11.6036 2.43062 10.7866 1.84886C9.96955 1.2671 8.99151 0.954468 7.98852 0.954468C6.98553 0.954468 6.00748 1.2671 5.19045 1.84886C4.37342 2.43062 3.75805 3.25259 3.42994 4.20039C3.10183 5.14819 3.07731 6.1747 3.35979 7.13709C3.64227 8.09947 4.2177 8.94988 5.00602 9.56999C3.65556 10.1111 2.47726 11.0085 1.59672 12.1666C0.716177 13.3247 0.166407 14.7 0.00601845 16.146C-0.0131918 16.357 0.0511756 16.5672 0.185282 16.7313C0.319389 16.8954 0.512526 17.0003 0.723172 17.0235C0.933818 17.0467 1.14515 16.9863 1.31174 16.8553C1.47833 16.7243 1.58686 16.5332 1.61402 16.323C1.79117 14.7519 2.5408 13.301 3.71977 12.2475C4.89873 11.194 6.42443 10.6117 8.00552 10.6117C9.58661 10.6117 11.1123 11.194 12.2913 12.2475C13.4702 13.301 14.2199 14.7519 14.397 16.323C14.4178 16.5203 14.5112 16.7028 14.6591 16.8351C14.8069 16.9674 14.9986 17.0401 15.197 17.039H15.285C15.3895 17.0274 15.4907 16.9954 15.5828 16.9447C15.6749 16.894 15.7561 16.8256 15.8217 16.7435C15.8874 16.6614 15.9362 16.5672 15.9654 16.4662C15.9947 16.3652 16.0037 16.2595 15.992 16.155C15.8308 14.7048 15.2779 13.3259 14.3927 12.166C13.5075 11.0062 12.3233 10.1091 10.967 9.57099L10.971 9.56999ZM7.98802 8.99899C7.35195 8.99899 6.73017 8.81038 6.2013 8.457C5.67244 8.10362 5.26023 7.60135 5.01682 7.0137C4.77341 6.42606 4.70972 5.77943 4.83381 5.15558C4.9579 4.53174 5.2642 3.9587 5.71396 3.50894C6.16373 3.05917 6.73676 2.75288 7.36061 2.62879C7.98445 2.5047 8.63108 2.56839 9.21873 2.8118C9.80638 3.05521 10.3086 3.46741 10.662 3.99628C11.0154 4.52515 11.204 5.14693 11.204 5.78299C11.204 6.63593 10.8652 7.45393 10.2621 8.05705C9.65896 8.66017 8.84095 8.99899 7.98802 8.99899Z" fill="white"/>
</svg>
